<?xml version="1.0" encoding="UTF-8"?>
<!DOCTYPE svg PUBLIC "-//W3C//DTD SVG 1.1 Tiny//EN" "http://www.w3.org/Graphics/SVG/1.1/DTD/svg11-tiny.dtd">
<svg baseProfile="tiny" height="96px" version="1.1" viewBox="0 0 96 96" width="96px" x="0px" xmlns="http://www.w3.org/2000/svg" xmlns:xlink="http://www.w3.org/1999/xlink" y="0px">
<path d="M87.141,59.508L74.324,37.93c-0.414-0.701-1.355-0.605-1.716-0.009L62.199,55.123V39.157  c0-1.741-1.417-3.157-3.158-3.157H48.979c-1.74,0-3.156,1.416-3.156,3.157v19.106H41c-0.654,0-1.319,0.754-0.855,1.518L53.202,81.36  c0.391,0.647,1.332,0.642,1.715-0.008l10.312-17.359v16.13c0,1.741,1.416,3.157,3.156,3.157h10.063c1.741,0,3.158-1.416,3.158-3.157  V61.018h4.676C87.031,61.018,87.546,60.19,87.141,59.508z" fill-opacity="0.15" stroke-opacity="0.15"/>
<path d="M86.711,59.763L73.894,38.184c-0.145-0.246-0.617-0.399-0.857-0.004L61.699,56.915V39.157  c0-1.465-1.192-2.657-2.658-2.657H48.979c-1.465,0-2.656,1.192-2.656,2.657v19.606H41c-0.389,0-0.63,0.426-0.428,0.759L53.63,81.102  c0.195,0.32,0.665,0.324,0.857-0.004l11.241-18.926v17.951c0,1.465,1.191,2.657,2.656,2.657h10.063c1.466,0,2.658-1.192,2.658-2.657  V60.518h5.176C86.691,60.518,86.896,60.073,86.711,59.763z" fill-opacity="0.15" stroke-opacity="0.15"/>
<path d="M73.464,38.438L61.199,58.707L41,59.264l13.058,21.579l12.171-20.492v19.772c0,1.192,0.967,2.157,2.156,2.157  h10.063c1.191,0,2.158-0.965,2.158-2.157V60.018h5.676L73.464,38.438z" fill-opacity="0.4" stroke-opacity="0.4"/>
<linearGradient gradientUnits="userSpaceOnUse" id="SVGID_1_" x1="53.9375" x2="53.9375" y1="36.4458" y2="88.6872">
<stop offset="0" style="stop-color:#96D63A"/>
<stop offset="1" style="stop-color:#0F581C"/>
</linearGradient>
<path d="M61.199,58.264V38.157c0-1.19-0.967-2.157-2.158-2.157H48.979c-1.19,0-2.156,0.967-2.156,2.157  v20.106H41l13.058,21.579l12.817-21.579H61.199z" fill="url(#SVGID_1_)"/>
<linearGradient gradientUnits="userSpaceOnUse" id="SVGID_2_" x1="54.0107" x2="54.0107" y1="36.7773" y2="50.6849">
<stop offset="0" style="stop-color:#FFFFFF;stop-opacity:0.6"/>
<stop offset="1" style="stop-color:#FFFFFF;stop-opacity:0"/>
</linearGradient>
<path d="M61.199,45.871v-7.714c0-1.19-0.967-2.157-2.158-2.157H48.979c-1.19,0-2.156,0.967-2.156,2.157  v15.767c1.117-1.051,2.334-2.052,3.645-2.984C53.93,48.472,57.622,46.784,61.199,45.871z" fill="url(#SVGID_2_)"/>
<linearGradient gradientUnits="userSpaceOnUse" id="SVGID_3_" x1="53.9336" x2="53.9336" y1="22.3457" y2="72.8956">
<stop offset="0" style="stop-color:#96D63A"/>
<stop offset="1" style="stop-color:#0F581C"/>
</linearGradient>
<polyline fill="url(#SVGID_3_)" points="41,58.264 54.058,79.843 66.867,58.275 65.117,59.264 54.05,77.898 42.773,59.264   41.021,58.264 "/>
<linearGradient gradientUnits="userSpaceOnUse" id="SVGID_4_" x1="63.6768" x2="63.6768" y1="50.9502" y2="70.8604">
<stop offset="0" style="stop-color:#79CD19"/>
<stop offset="1" style="stop-color:#1B6332"/>
</linearGradient>
<polygon fill="url(#SVGID_4_)" points="60.479,58.982 61.199,58.982 65.611,58.982 65.599,59.003 66.867,58.275 66.875,58.264   61.199,58.264 61.199,58.261 60.479,58.979 "/>
<linearGradient gradientUnits="userSpaceOnUse" id="SVGID_5_" x1="44.4111" x2="44.4111" y1="48.4136" y2="75.24">
<stop offset="0" style="stop-color:#96D63A"/>
<stop offset="1" style="stop-color:#0F581C"/>
</linearGradient>
<polygon fill="url(#SVGID_5_)" points="42.773,59.264 47.822,59.264 46.818,58.264 41,58.264 "/>
<path d="M59.123,58.241c-0.28,0.463-0.289,1.042-0.025,1.512c0.266,0.472,0.767,0.765,1.309,0.765h4.322v1.358  l2.146-3.612h-5.676v-3.453L59.123,58.241z" fill-opacity="0.1" stroke-opacity="0.1"/>
<path d="M59.551,58.5c-0.188,0.309-0.193,0.695-0.017,1.008c0.177,0.314,0.511,0.51,0.872,0.51h4.822v1.017  l1.646-2.771h-5.676v-2.488L59.551,58.5z" fill-opacity="0.1" stroke-opacity="0.1"/>
<path d="M59.979,58.759c-0.094,0.154-0.098,0.347-0.008,0.504c0.088,0.157,0.254,0.255,0.436,0.255h5.322v0.675  l1.146-1.929h-5.676v-1.522L59.979,58.759z" fill-opacity="0.3" stroke-opacity="0.3"/>
<linearGradient gradientUnits="userSpaceOnUse" id="SVGID_6_" x1="73.3438" x2="73.3438" y1="26.1245" y2="90.2377">
<stop offset="0" style="stop-color:#009AFF"/>
<stop offset="1" style="stop-color:#051F7D"/>
</linearGradient>
<path d="M86.281,59.018L73.464,37.438L60.406,59.018h5.822v20.105c0,1.192,0.967,2.157,2.156,2.157h10.063  c1.191,0,2.158-0.965,2.158-2.157V59.018H86.281z" fill="url(#SVGID_6_)"/>
<linearGradient gradientUnits="userSpaceOnUse" id="SVGID_7_" x1="70.4414" x2="70.4414" y1="39.8643" y2="57.3841">
<stop offset="0" style="stop-color:#FFFFFF;stop-opacity:0.6"/>
<stop offset="1" style="stop-color:#FFFFFF;stop-opacity:0"/>
</linearGradient>
<path d="M73.469,53.096c2.271-1.617,4.639-2.9,7.008-3.85l-7.013-11.808L60.406,59.018h5.822v1.063  C68.139,57.55,70.572,55.159,73.469,53.096z" fill="url(#SVGID_7_)"/>
<linearGradient gradientUnits="userSpaceOnUse" id="SVGID_8_" x1="73.3398" x2="73.3398" y1="46.8115" y2="82.3889">
<stop offset="0" style="stop-color:#009AFF"/>
<stop offset="1" style="stop-color:#051F7D"/>
</linearGradient>
<polygon fill="url(#SVGID_8_)" points="84.52,57.998 73.457,39.384 62.191,57.998 60.406,59.018 73.464,37.438 86.273,59.006 "/>
<linearGradient gradientUnits="userSpaceOnUse" id="SVGID_9_" x1="82.9434" x2="82.9434" y1="26.3955" y2="67.8789">
<stop offset="0" style="stop-color:#009AFF"/>
<stop offset="1" style="stop-color:#051F7D"/>
</linearGradient>
<polygon fill="url(#SVGID_9_)" points="84.52,57.998 86.281,59.018 80.605,59.018 79.605,58.021 "/>
<linearGradient gradientUnits="userSpaceOnUse" id="SVGID_10_" x1="63.8271" x2="63.8271" y1="25.7705" y2="68.054">
<stop offset="0" style="stop-color:#009AFF"/>
<stop offset="1" style="stop-color:#051F7D"/>
</linearGradient>
<polygon fill="url(#SVGID_10_)" points="62.191,57.998 67.248,57.998 66.225,59.018 60.406,59.018 "/>
<linearGradient gradientUnits="userSpaceOnUse" id="SVGID_11_" x1="54.0088" x2="54.0088" y1="33.3389" y2="68.1402">
<stop offset="0" style="stop-color:#96D63A"/>
<stop offset="1" style="stop-color:#0F581C"/>
</linearGradient>
<path d="M47.822,38.157c0-0.638,0.52-1.157,1.156-1.157h10.063c0.639,0,1.158,0.52,1.158,1.157v21.106  l1-1.266V38.157c0-1.19-0.967-2.157-2.158-2.157H48.979c-1.19,0-2.156,0.967-2.156,2.157v20.106h-0.004l1.004,1V38.157z" fill="url(#SVGID_11_)"/>
<linearGradient gradientUnits="userSpaceOnUse" id="SVGID_12_" x1="73.415" x2="73.415" y1="24.9624" y2="75.6372">
<stop offset="0" style="stop-color:#009AFF"/>
<stop offset="1" style="stop-color:#051F7D"/>
</linearGradient>
<path d="M79.605,79.123c0,0.638-0.52,1.157-1.158,1.157H68.385c-0.637,0-1.156-0.52-1.156-1.157V58.018l0,0  l-1.004,1h0.004v20.105c0,1.192,0.967,2.157,2.156,2.157h10.063c1.191,0,2.158-0.965,2.158-2.157V59.021l-1-1V79.123z" fill="url(#SVGID_12_)"/>
<path d="M29.249,51.904c-0.025-1.024,1.39-6.07,8.97-13.688c6.15-6.124,11.745-8.977,13.59-8.977  c0.027,0,0.054,0.001,0.079,0.003c1.002,0.438,1.713,0.745,2.303,0.999c2.084,0.898,2.644,1.141,9.219,4.241  c0.135,0.064,0.278,0.097,0.429,0.097c0.121,0,0.24-0.021,0.352-0.064c3.961-1.483,10.477-5.185,15.419-9.802  c0.241-0.224,0.356-0.551,0.309-0.879c-0.303-2.076-1.227-8.392-5.288-11.934l-0.097-0.11c-0.081-0.095-0.164-0.188-0.251-0.274  c-2.271-2.276-5.437-3.431-9.407-3.431c-7.128,0-16.449,3.885-26.249,10.939c-4.834,3.503-8.48,6.521-10.828,8.964  c-3.177,3.155-5.712,6.41-8.773,10.64C7.879,54.107,5.002,67.769,11.516,74.28c0.144,0.144,0.294,0.275,0.457,0.411  c2.435,2.627,6.288,4.361,11.541,5.17c0.102,0.015,0.174,0.025,0.186,0.027c0.092,0.026,0.187,0.04,0.281,0.04  c0.293,0,0.57-0.128,0.762-0.352c3.852-4.524,7.017-8.528,9.764-15.366c0.102-0.253,0.095-0.54-0.018-0.786  C32.811,59.738,29.729,52.963,29.249,51.904z" fill-opacity="0.15" stroke-opacity="0.15"/>
<path d="M51.809,28.739c0.076,0,0.146,0.005,0.209,0.014c1.038,0.454,1.768,0.77,2.371,1.029  c2.09,0.901,2.651,1.144,9.236,4.249c0.067,0.032,0.14,0.048,0.213,0.048c0.06,0,0.119-0.011,0.176-0.032  c3.916-1.467,10.36-5.128,15.255-9.701c0.12-0.111,0.178-0.275,0.154-0.438c-0.297-2.03-1.199-8.21-5.169-11.678l-0.101-0.114  c-0.073-0.085-0.147-0.169-0.226-0.247c-2.174-2.179-5.22-3.284-9.054-3.284c-7.024,0-16.242,3.852-25.956,10.845  c-4.811,3.485-8.436,6.486-10.769,8.913c-3.152,3.131-5.673,6.367-8.72,10.577C8.438,54.187,5.541,67.601,11.869,73.927  c0.137,0.137,0.28,0.263,0.425,0.39l0.045,0.035c2.355,2.541,6.112,4.225,11.165,5.002c0.165,0.025,0.28,0.042,0.335,0.055  c0.047,0.014,0.095,0.021,0.142,0.021c0.144,0,0.284-0.063,0.381-0.176c3.821-4.488,6.961-8.459,9.681-15.228  c0.051-0.127,0.048-0.27-0.009-0.394c-1.729-3.801-4.951-10.884-5.276-11.603c-0.111-0.981,1.106-6.125,9.109-14.168  C44.186,31.569,49.823,28.739,51.809,28.739z" fill-opacity="0.15" stroke-opacity="0.15"/>
<path d="M52.164,28.271c4.692,2.054,3.145,1.285,11.674,5.308c4.09-1.532,10.424-5.24,15.09-9.599  c-0.48-3.29-1.562-8.368-5.044-11.414c-0.104-0.114-50.946,22.359-54.048,26.646C9.289,53.86,5.992,67.345,12.223,73.573  c0.154,0.154,0.319,0.295,0.482,0.438c3.894,4.2,10.887,4.792,11.275,4.917c3.771-4.428,6.915-8.413,9.598-15.09  c0,0-5.254-11.549-5.305-11.666c-0.223-1.165,1.184-6.569,9.24-14.666C44.379,30.671,50.361,27.904,52.164,28.271z" fill-opacity="0.4" stroke-opacity="0.4"/>
<path d="M73.033,10.892C52.262,16.63,17.804,47.755,11.3,71.076c3.253,5.97,12.239,6.711,12.681,6.853  c3.771-4.428,6.915-8.413,9.598-15.09c0,0-5.254-11.549-5.305-11.666c-0.223-1.165,1.184-6.569,9.24-14.666  c6.865-6.836,12.848-9.603,14.65-9.235c4.692,2.054,3.145,1.285,11.674,5.308c4.09-1.532,10.424-5.24,15.09-9.599  C78.41,19.436,77.199,13.81,73.033,10.892z" fill="#283175"/>
<linearGradient gradientUnits="userSpaceOnUse" id="SVGID_13_" x1="43.6226" x2="43.6226" y1="23.3003" y2="128.0071">
<stop offset="0" style="stop-color:#009AFF"/>
<stop offset="1" style="stop-color:#051F7D"/>
</linearGradient>
<path d="M73.574,11.223c-5.807-5.821-18.67-3.687-34.363,7.612c-3.396,2.461-7.807,5.844-10.709,8.862  c-3.084,3.063-5.564,6.229-8.666,10.515C9.289,52.86,5.992,66.345,12.223,72.573c3.818,3.818,10.385,4.413,10.994,4.592  c4.497-4.987,7.803-10.404,9.598-15.09c-3.006-6.435-5.254-11.548-5.305-11.665c-0.283-1.743,2.064-7.453,9.24-14.667  c6.807-6.775,12.846-9.602,14.65-9.235c3.697,1.576,5.551,2.441,11.674,5.307c3.545-1.296,9.406-4.539,15.09-9.597  C78.164,22.218,77.273,14.918,73.574,11.223z" fill="url(#SVGID_13_)"/>
<radialGradient cx="43.5562" cy="42.0718" gradientTransform="matrix(0.717 -0.6971 0.3681 0.3786 -3.1589 56.5061)" gradientUnits="userSpaceOnUse" id="SVGID_14_" r="22.0964">
<stop offset="0" style="stop-color:#231F20;stop-opacity:0.3"/>
<stop offset="0.753" style="stop-color:#231F20;stop-opacity:0.3"/>
<stop offset="1" style="stop-color:#000000;stop-opacity:0"/>
</radialGradient>
<path d="M49.607,19.678c-1.505-1.193-9.787,5.495-17.231,12.648c-7.032,6.757-13.316,13.928-12.438,15.261  c3.18,4.833,11.333,14.573,12.877,14.488c1.786,4.025-3.473-7.438-5.305-11.665c-0.23-1.42,1.521-6.905,9.24-14.667  c6.695-6.663,12.752-9.621,14.65-9.235c0.119,0.051,7.91,3.49,11.674,5.307C63.945,29.955,53.846,23.039,49.607,19.678z" fill="url(#SVGID_14_)"/>
<radialGradient cx="41.5591" cy="39.8374" fx="35.2914" fy="39.924" gradientTransform="matrix(-0.701 -0.7131 1.8436 -1.8123 -2.7515 141.6727)" gradientUnits="userSpaceOnUse" id="SVGID_15_" r="17.6458">
<stop offset="0" style="stop-color:#000000;stop-opacity:0"/>
<stop offset="0.9217" style="stop-color:#000000;stop-opacity:0"/>
<stop offset="1" style="stop-color:#231F20;stop-opacity:0.3"/>
</radialGradient>
<path d="M68.869,8.576c-1.25-0.34-2.579-0.507-3.951-0.503c-13.027,0.08-29.163,12.766-34.965,18.216  C20.688,35.556,9.15,51.427,9.074,63.917c-0.004,1.18,0.118,2.329,0.367,3.425C28.054,36.005,40.387,26.255,68.869,8.576z" fill="url(#SVGID_15_)"/>
<linearGradient gradientUnits="userSpaceOnUse" id="SVGID_16_" x1="66.4609" x2="66.4609" y1="6.2998" y2="50.4396">
<stop offset="0" style="stop-color:#009AFF"/>
<stop offset="1" style="stop-color:#051F7D"/>
</linearGradient>
<path d="M63.281,31.535c3.168-1.302,8.643-4.069,14.758-9.383c-0.486-2.793-1.273-5.24-2.322-7.191  L54.883,27.663C57.611,28.872,60.445,30.173,63.281,31.535z" fill="url(#SVGID_16_)"/>
<linearGradient gradientTransform="matrix(0.7071 -0.7071 0.7071 0.7071 -236.5468 -85.5474)" gradientUnits="userSpaceOnUse" id="SVGID_17_" x1="157.8945" x2="143.6744" y1="279.627" y2="285.387">
<stop offset="0" style="stop-color:#FFFFFF"/>
<stop offset="1" style="stop-color:#FFFFFF;stop-opacity:0"/>
</linearGradient>
<path d="M58.721,13.574l10.25,5.197l6.355-3.892C72.03,9.786,64.626,9.209,58.721,13.574z" fill="url(#SVGID_17_)"/>
<linearGradient gradientTransform="matrix(0.7071 -0.7071 0.7071 0.7071 -236.5468 -85.5474)" gradientUnits="userSpaceOnUse" id="SVGID_18_" x1="118.0596" x2="132.8288" y1="272.0107" y2="283.7179">
<stop offset="0" style="stop-color:#FFFFFF"/>
<stop offset="1" style="stop-color:#FFFFFF;stop-opacity:0"/>
</linearGradient>
<path d="M55.307,17.018c-2.447,3.188-3.613,6.659-3.227,8.976l2.979,1.27l9.41-5.786  C66.867,17.575,58.682,12.629,55.307,17.018z" fill="url(#SVGID_18_)"/>
<linearGradient gradientUnits="userSpaceOnUse" id="SVGID_19_" x1="24.2266" x2="24.2266" y1="32.5884" y2="95.3979">
<stop offset="0" style="stop-color:#009AFF"/>
<stop offset="1" style="stop-color:#051F7D"/>
</linearGradient>
<path d="M32.666,62.194c-1.328,3.224-4.145,8.8-9.557,15.029c-2.844-0.499-5.334-1.299-7.322-2.366  l12.934-21.216C29.955,56.421,31.277,59.305,32.666,62.194z" fill="url(#SVGID_19_)"/>
<linearGradient gradientTransform="matrix(-0.7071 0.7071 0.7071 0.7071 -1710.7705 1388.6769)" gradientUnits="userSpaceOnUse" id="SVGID_20_" x1="-2182.1489" x2="-2167.1106" y1="271.624" y2="283.5445">
<stop offset="0" style="stop-color:#FFFFFF"/>
<stop offset="1" style="stop-color:#FFFFFF;stop-opacity:0"/>
</linearGradient>
<path d="M17.885,54.072c3.246-2.493,6.781-3.683,9.139-3.285l1.293,3.03l-5.891,9.582  C18.451,65.843,13.414,57.507,17.885,54.072z" fill="url(#SVGID_20_)"/>
<linearGradient gradientTransform="matrix(-0.7071 0.7071 0.7071 0.7071 -1710.7705 1388.6769)" gradientUnits="userSpaceOnUse" id="SVGID_21_" x1="-2141.5947" x2="-2156.0691" y1="279.3809" y2="285.2439">
<stop offset="0" style="stop-color:#FFFFFF"/>
<stop offset="1" style="stop-color:#FFFFFF;stop-opacity:0"/>
</linearGradient>
<path d="M14.379,57.548l5.291,10.438l-3.965,6.471C10.576,71.127,9.883,63.628,14.379,57.548z" fill="url(#SVGID_21_)"/>
<linearGradient gradientUnits="userSpaceOnUse" id="SVGID_22_" x1="47.3364" x2="47.3364" y1="-17.5747" y2="26.6288">
<stop offset="0" style="stop-color:#FFFFFF;stop-opacity:0.5"/>
<stop offset="1" style="stop-color:#FFFFFF;stop-opacity:0"/>
</linearGradient>
<path d="M76.711,20.254C75.91,16.429,73.963,9.139,64.967,9.133h-0.043  c-11.243,0.039-33.76,12.211-46.961,33.729C24.75,37.082,33,31.93,42.367,27.934C54.129,22.918,65.988,20.428,76.711,20.254z" fill="url(#SVGID_22_)"/>
<rect fill="none" height="96" width="96"/>
</svg>
