<?xml version="1.0" encoding="UTF-8"?>
<!DOCTYPE svg PUBLIC "-//W3C//DTD SVG 1.1 Tiny//EN" "http://www.w3.org/Graphics/SVG/1.1/DTD/svg11-tiny.dtd">
<svg baseProfile="tiny" height="44px" version="1.1" viewBox="0 0 44 44" width="44px" x="0px" xmlns="http://www.w3.org/2000/svg" xmlns:xlink="http://www.w3.org/1999/xlink" y="0px">
<path d="M41.6,16.699l-8-6c-0.443-0.444-1.6-0.158-1.6,0.8v2h-6.063C24.869,13.5,24,14.371,24,15.438v2.061h-2  c-0.946,0-1.307,1.179-0.6,1.801l8,6c0.848,0.493,1.6-0.087,1.6-0.8v-1.998h6.063c1.068,0,1.939-0.871,1.939-1.941V18.5H41  C41.914,18.5,42.387,17.2,41.6,16.699z" fill-opacity="0.2" stroke-opacity="0.2"/>
<path d="M29.188,28.457c0,0-1.615-1.616-5.523-5.525c-0.983-0.981-2.035-1.54-2.486-1.753l-1.232-1.232  c0.824-2.169,0.767-5.566-1.078-7.411c-3.544-3.545-6.828-2.996-7.254-2.996c-2.342,0.221-2.066,2.521-1.193,3.399l3.385,3.381  c-0.605,1.065-1.506,1.89-2.628,2.328L7.42,14.897C7.111,14.586,5,13.004,5,17.85c0,2.959,2.959,9.864,9.514,7.476l1.248,1.248  c0.2,0.434,0.758,1.507,1.758,2.504l5.523,5.525c1.041,1.04,2.637,0.973,3.611-0.002l2.627-2.626  C30.602,30.653,29.873,29.14,29.188,28.457z" fill-opacity="0.3" stroke-opacity="0.3"/>
<path d="M18.763,20.181c0.88-1.888,1.145-4.19-0.603-5.938c-1.73-1.731-4.06-2.955-6.398-2.712  c-0.38,0.038-1.244,0.089-0.635,0.702l4.205,4.201c-0.613,2.057-2.191,3.791-4.393,4.392c0,0-4.867-3.945-4.91-3.568  c-0.238,2.341,1.014,4.638,2.744,6.371c1.684,1.683,4.115,1.34,5.982,0.525l1.85,1.851l-0.001,0.001c0,0,0.487,1.234,1.622,2.365  l5.525,5.525c0.605,0.606,1.588,0.606,2.195-0.002l2.641-2.641c0,0,1.012-0.973-0.107-2.09  C28.479,29.161,18.763,20.181,18.763,20.181z" fill-opacity="0.5" stroke-opacity="0.5"/>
<polygon fill-opacity="0.5" points="33,11.5 33,14.5 25,15.439 25,17.5 41,17.5 " stroke-opacity="0.5"/>
<path d="M30,24.5v-3h7.063c0.516,0,0.938-0.422,0.938-0.939V18.5H22L30,24.5z" fill-opacity="0.5" stroke-opacity="0.5"/>
<rect fill="none" fill-opacity="0.1" height="44" stroke-opacity="0.1" width="44"/>
<linearGradient gradientUnits="userSpaceOnUse" id="SVGID_1_" x1="13.4326" x2="13.4326" y1="8.5205" y2="23.128">
<stop offset="0" style="stop-color:#FFFFFF"/>
<stop offset="1" style="stop-color:#B2B2C9"/>
</linearGradient>
<path d="M20.865,21.284c0,0-1.666-1.666-2.103-2.103c0.88-1.888,1.145-4.19-0.603-5.938  c-1.73-1.731-4.06-2.955-6.398-2.712c-0.38,0.038-1.244,0.089-0.635,0.702l4.205,4.201c-0.613,2.057-2.191,3.791-4.393,4.392  l-4.227-4.221c-0.568-0.573-0.641,0.275-0.684,0.652c-0.238,2.341,1.014,4.638,2.744,6.372c1.684,1.682,4.115,1.339,5.982,0.525  c0.433,0.434,2.118,2.119,2.118,2.119L20.865,21.284z" fill="url(#SVGID_1_)"/>
<path d="M15.316,15.421l1.135-0.282l-3.619-3.615l-1.883-0.542C10.949,11.175,15.316,15.421,15.316,15.421z" fill-opacity="0.2" stroke-opacity="0.2"/>
<path d="M17.463,24.446l-2.482-2.48c0,0-3.492,1.966-5.501-0.043c-2.452-2.452-2.396-4.537-2.396-4.537l-0.703-1.975  c-0.27,0.006-0.318,0.562-0.352,0.846c-0.238,2.341,1.014,4.638,2.744,6.372c1.684,1.682,4.115,1.339,5.982,0.525  c0.432,0.434,2.119,2.119,2.119,2.119L17.463,24.446z" fill-opacity="0.2" stroke-opacity="0.2"/>
<path d="M15.316,15.421c-0.465,2.055-2.486,3.942-4.377,4.404l-4.227-4.221  c-0.139-0.142-0.246-0.194-0.332-0.193c0,0,0.441,1.239,0.721,1.994c0.672,0.67,2.889,2.883,3.544,3.538  c3.505-0.76,5.258-3.416,5.808-5.801c-0.678-0.677-0.002-0.002-0.002-0.002L15.316,15.421z" fill="#FFFFFF" fill-opacity="0.4" stroke-opacity="0.4"/>
<path d="M20.769,21.187c0,0-2.005-2.005-2.006-2.006c1.446-3.144,0.287-5.049-0.603-5.938  c-1.73-1.731-4.06-2.955-6.398-2.712c-0.317,0.032-0.971,0.078-0.813,0.452l1.883,0.542c1.551,0.147,3.211,1.012,4.623,2.424  c2.17,2.171,0.107,5.445,0.107,5.445l2.488,2.487L20.769,21.187z" fill="#FFFFFF" fill-opacity="0.4" stroke-opacity="0.4"/>
<linearGradient gradientTransform="matrix(1 0 0 1 -0.3291 0.0928)" gradientUnits="userSpaceOnUse" id="SVGID_2_" x1="26.4111" x2="19.4654" y1="24.0508" y2="30.9969">
<stop offset="0" style="stop-color:#3687FF"/>
<stop offset="1" style="stop-color:#051F7D"/>
</linearGradient>
<path d="M22.957,22.64c-1.117-1.115-2.363-1.625-2.363-1.625l-3.989,3.99c0,0,0.487,1.234,1.622,2.365  l5.525,5.525c0.605,0.606,1.588,0.606,2.195-0.002l2.641-2.641c0,0,1.012-0.973-0.107-2.09  C28.479,28.161,22.959,22.642,22.957,22.64z" fill="url(#SVGID_2_)"/>
<linearGradient gradientTransform="matrix(-1 0 0 -1 -958.4082 -212.4785)" gradientUnits="userSpaceOnUse" id="SVGID_3_" x1="-991.4082" x2="-991.4082" y1="-227.8877" y2="-212.5025">
<stop offset="0" style="stop-color:#4A9BFF"/>
<stop offset="1" style="stop-color:#142E8C"/>
</linearGradient>
<path d="M33,10.5v3h-7.063C25.422,13.5,25,13.922,25,14.439V16.5h16L33,10.5z" fill="url(#SVGID_3_)"/>
<path d="M33,10.5v3h-7.063C25.422,13.5,25,13.922,25,14.439V16.5h1v-2h8v-2l5.43,4H41L33,10.5z" fill="#FFFFFF" fill-opacity="0.15" stroke-opacity="0.15"/>
<linearGradient gradientTransform="matrix(1 0 0 1 6.4082 -14)" gradientUnits="userSpaceOnUse" id="SVGID_4_" x1="23.5918" x2="23.5918" y1="32.5908" y2="47.976">
<stop offset="0" style="stop-color:#4A9BFF"/>
<stop offset="1" style="stop-color:#142E8C"/>
</linearGradient>
<path d="M30,23.5v-3h7.063c0.516,0,0.938-0.422,0.938-0.939V17.5H22L30,23.5z" fill="url(#SVGID_4_)"/>
<path d="M30,23.5v-3h7.063c0.516,0,0.938-0.422,0.938-0.939V17.5h-1v2h-8v2l-5.428-4H22L30,23.5z" fill="#FFFFFF" fill-opacity="0.15" stroke-opacity="0.15"/>
</svg>
