<?xml version="1.0" encoding="UTF-8"?>
<!DOCTYPE svg PUBLIC "-//W3C//DTD SVG 1.1 Tiny//EN" "http://www.w3.org/Graphics/SVG/1.1/DTD/svg11-tiny.dtd">
<svg baseProfile="tiny" height="96px" version="1.1" viewBox="0 0 96 96" width="96px" x="0px" xmlns="http://www.w3.org/2000/svg" xmlns:xlink="http://www.w3.org/1999/xlink" y="0px">
<path d="M66.594,43.852V28.396v-1c0-0.357-0.189-0.688-0.5-0.866l-17.22-9.943c-0.152-0.088-0.324-0.134-0.5-0.134  H18.938c-0.553,0-1,0.447-1,1v58.024c0,0.552,0.45,1,1,1h26.596c3.837,4.33,9.335,6.81,15.119,6.81  c11.139,0,20.199-9.051,20.199-20.177C80.852,54.3,75.008,46.436,66.594,43.852z" fill-opacity="0.15" stroke-opacity="0.15"/>
<path d="M66.094,44.225V28.396c0-0.179-0.096-0.344-0.25-0.433l-17.22-9.943c-0.076-0.044-0.162-0.067-0.25-0.067  H18.938c-0.275,0-0.5,0.224-0.5,0.5v57.024c0,0.276,0.225,0.5,0.5,0.5H45.76c3.751,4.331,9.166,6.81,14.892,6.81  c10.863,0,19.699-8.827,19.699-19.677C80.352,54.347,74.508,46.636,66.094,44.225z" fill-opacity="0.15" stroke-opacity="0.15"/>
<path d="M18.938,18.452v57.024h27.053c3.521,4.161,8.779,6.81,14.662,6.81c10.605,0,19.199-8.584,19.199-19.177  C79.852,54.233,18.938,18.452,18.938,18.452z" fill-opacity="0.4" stroke-opacity="0.4"/>
<linearGradient gradientUnits="userSpaceOnUse" id="SVGID_1_" x1="42.2656" x2="42.2656" y1="16.7422" y2="231.5886">
<stop offset="0" style="stop-color:#FFFFFF"/>
<stop offset="1" style="stop-color:#B2B2C9"/>
</linearGradient>
<polygon fill="url(#SVGID_1_)" points="65.594,27.396 48.374,17.452 18.938,17.452 18.938,74.477 65.594,74.477 "/>
<linearGradient gradientUnits="userSpaceOnUse" id="SVGID_2_" x1="59.8633" x2="61.2136" y1="24.9434" y2="29.8888">
<stop offset="0" style="stop-color:#000000"/>
<stop offset="1" style="stop-color:#000000;stop-opacity:0"/>
</linearGradient>
<path d="M65.594,27.772v-0.357l-7.266-1.899l-0.17,11.696  C58.158,37.212,65.826,32.596,65.594,27.772z" fill="url(#SVGID_2_)" fill-opacity="0.6" stroke-opacity="0.6"/>
<linearGradient gradientUnits="userSpaceOnUse" id="SVGID_3_" x1="56.2461" x2="54.0963" y1="23.1357" y2="26.2856">
<stop offset="0" style="stop-color:#000000"/>
<stop offset="1" style="stop-color:#000000;stop-opacity:0"/>
</linearGradient>
<path d="M57.252,24.918l-8.916-7.466h0.037c3.72,3.727,11.82,17.172,11.82,17.172  L57.252,24.918z" fill="url(#SVGID_3_)" fill-opacity="0.3" stroke-opacity="0.3"/>
<path d="M65.639,27.433l-17.302-9.98h0.037c6.601,7.195,8.519,15.388,10.226,16.012  C59.375,33.747,63.102,27.496,65.639,27.433z" fill-opacity="0.03" stroke-opacity="0.03"/>
<path d="M58.682,32.526c-0.729-0.135-3.627-7.563-8.932-14.055l15.299,8.807  C63.107,27.817,59.193,32.621,58.682,32.526z" fill-opacity="0.03" stroke-opacity="0.03"/>
<path d="M58.682,31.915c-0.619-0.135-3.492-6.952-7.641-12.313l13.648,7.812  C61.707,28.545,59.107,32.008,58.682,31.915z" fill-opacity="0.03" stroke-opacity="0.03"/>
<path d="M52.473,21.192l11.178,6.365c-2.547,0.84-4.521,3.649-4.996,3.624S55.885,25.389,52.473,21.192z" fill-opacity="0.03" stroke-opacity="0.03"/>
<path d="M65.578,27.429c0.242,0.371-0.527,1.81-3.154,2.876c-2.152,0.875-4.008,1.066-4.25-0.176  C57.854,28.489,64.857,26.323,65.578,27.429z" fill-opacity="0.05" stroke-opacity="0.05"/>
<path d="M59.574,30.579c-0.848,0-0.922-0.371-0.953-0.528c-0.016-0.091,0.047-0.224,0.18-0.375  c0.898-1.021,3.732-2.585,5.35-2.585c0.494,0,1.371,0.311,1.428,0.338c-0.014,0.173-1.051,1.551-3.334,2.479  C61.164,30.347,60.24,30.579,59.574,30.579L59.574,30.579z" fill-opacity="0.05" stroke-opacity="0.05"/>
<path d="M58.758,29.765c-0.721-0.723,2.381-2.104,3.359-2.338c0.355-0.086,3.15-0.635,3.334-0.037  c-0.172,0.527-2.662,1.929-4.439,2.482C60.268,30.105,59.229,30.331,58.758,29.765z" fill-opacity="0.1" stroke-opacity="0.1"/>
<path d="M59.695,29.688c-0.42,0-0.539-0.143-0.578-0.189c0.08-0.375,2.086-1.407,3.111-1.653  c0.338-0.081,1.039-0.727,1.883-0.777c0.439-0.025,0.975,0.321,1.016,0.322c-0.619,0.527-2.838,1.63-4.256,2.072  C60.383,29.614,59.998,29.688,59.695,29.688L59.695,29.688z" fill-opacity="0.1" stroke-opacity="0.1"/>
<path d="M48.393,17.545l17.238,9.864c-1.541-0.234-7.494,3.806-7.494,3.806S54.139,21.987,48.393,17.545z" fill-opacity="0.15" stroke-opacity="0.15"/>
<linearGradient gradientUnits="userSpaceOnUse" id="SVGID_4_" x1="55.6885" x2="59.0298" y1="24.0771" y2="19.8141">
<stop offset="0" style="stop-color:#FFFFFF"/>
<stop offset="1" style="stop-color:#B2B2C9"/>
</linearGradient>
<path d="M48.374,17.452l17.22,9.942c-1.688-0.601-7.326,3.113-7.326,3.113S54.307,21.436,48.374,17.452z" fill="url(#SVGID_4_)"/>
<path d="M65.594,42.061c-1.586-0.391-3.236-0.62-4.941-0.62c-11.414,0-20.699,9.272-20.699,20.669  c0,4.64,1.557,8.913,4.15,12.367h21.49V42.061z" fill-opacity="0.1" stroke-opacity="0.1"/>
<path d="M65.594,42.576c-1.584-0.4-3.234-0.636-4.941-0.636c-11.139,0-20.199,9.048-20.199,20.169  c0,4.662,1.605,8.947,4.273,12.367h20.867V42.576z" fill-opacity="0.1" stroke-opacity="0.1"/>
<path d="M65.594,43.092c-1.582-0.41-3.232-0.651-4.941-0.651c-10.863,0-19.699,8.823-19.699,19.669  c0,4.684,1.652,8.985,4.396,12.367h20.244V43.092z" fill-opacity="0.3" stroke-opacity="0.3"/>
<radialGradient cx="7.835" cy="287.8496" gradientTransform="matrix(1.0971 0 0 1.0971 57.2001 -264.5479)" gradientUnits="userSpaceOnUse" id="SVGID_5_" r="31.056">
<stop offset="0" style="stop-color:#009AFF"/>
<stop offset="0.1484" style="stop-color:#009AFF"/>
<stop offset="0.3589" style="stop-color:#0275D8"/>
<stop offset="0.6515" style="stop-color:#0346A7"/>
<stop offset="0.8746" style="stop-color:#052A88"/>
<stop offset="1" style="stop-color:#051F7D"/>
</radialGradient>
<path d="M79.852,62.109c0,10.593-8.594,19.177-19.199,19.177s-19.199-8.584-19.199-19.177  c0-10.584,8.593-19.169,19.199-19.169S79.852,51.525,79.852,62.109z" fill="url(#SVGID_5_)"/>
<linearGradient gradientUnits="userSpaceOnUse" id="SVGID_6_" x1="60.5742" x2="60.5742" y1="74.6934" y2="81.3783">
<stop offset="0" style="stop-color:#009AFF;stop-opacity:0"/>
<stop offset="1" style="stop-color:#009AFF"/>
</linearGradient>
<path d="M60.559,81.286c-6.924,0-13.332-3.742-16.728-9.766l33.488-0.055  C73.934,77.523,67.514,81.286,60.559,81.286L60.559,81.286z" fill="url(#SVGID_6_)" fill-opacity="0.7" stroke-opacity="0.7"/>
<path d="M61.668,47.987l3.385-3.377l-1.613-1.11h-6.967l-0.115,0.117h-0.705  c-7.654,2.046-13.419,8.678-14.144,16.775l1.049-1.046h1.113v0.988h-1.568l-0.615,0.613h-0.006  c-0.023,0.388-0.059,0.772-0.059,1.166c0,0.71,0.045,1.409,0.119,2.099h0.217l2.088,2.082v0.148l-0.369,0.373v3.879l2.455,2.45  h0.525l0.396,0.396v1.924c1.611,1.657,3.521,3.014,5.64,4.006v-1.338l1.34-1.336v-1.37l0.66-0.66h1.242v-3.339l1.385-1.382v-2.742  H54.57l-0.068-0.067V66.01h-2.164l-2.744-2.741h-4.005l-0.51,0.51h-0.344l-0.068-0.067v-2.167h-0.701v-0.95h2.1v-2.258l0.572-0.571  h0.762l2.285-2.282h1.338l0.955-0.947v-0.873h0.908l1.08-1.073v-1.175l-0.574-0.57v-0.98l0.512-0.508h0.305l0.703-0.704v2.268h2.381  l1.088-1.085h0.752l1.854-1.847H61.668z M71.371,46.23h-2.656l-2.801,2.797v0.207h-1.623l-0.861,0.799v0.316l-0.721,0.595v0.304  l-0.279,0.279v1.716h1.125v0.096h0.066v0.236h-1.068v2.932l0.195,0.196l-2.205,2.201v5.605l2.445,2.441h3.891v1.418l1.127,1.127  v7.485l1.637,1.633h0.729c1.809-1.067,3.426-2.416,4.789-3.995v-0.864l1.473-1.471V68.92l2.746-2.74  c0.057-0.254,0.094-0.514,0.139-0.771v-2.371l0.27-0.269c0.008-0.22,0.033-0.434,0.033-0.654  C79.82,55.506,76.471,49.677,71.371,46.23z" fill="#231F20" fill-opacity="0.25" stroke-opacity="0.25"/>
<radialGradient cx="4.2935" cy="289.1543" gradientTransform="matrix(1.0971 0 0 1.0971 57.2001 -264.5479)" gradientUnits="userSpaceOnUse" id="SVGID_7_" r="23.4327">
<stop offset="0" style="stop-color:#96D63A"/>
<stop offset="0.2637" style="stop-color:#96D63A"/>
<stop offset="0.3379" style="stop-color:#7EC52B"/>
<stop offset="0.4353" style="stop-color:#66B41C"/>
<stop offset="0.525" style="stop-color:#57AA12"/>
<stop offset="0.5989" style="stop-color:#52A60F"/>
<stop offset="0.7432" style="stop-color:#358515"/>
<stop offset="0.9087" style="stop-color:#1A641A"/>
<stop offset="1" style="stop-color:#0F581C"/>
</radialGradient>
<path d="M74.291,61.762v-2.841h0.625v2.645l1.734,1.731h1.219l1.943-1.939  c-0.016-0.398-0.021-0.799-0.061-1.191h-1.336l-1.23-1.23l0.424-0.427l1.127,1.126h0.936c-0.27-2.095-0.881-4.077-1.771-5.902v0.322  h-0.457v0.394l1.158,1.155v0.76h-0.979l-0.332-0.328V55.33l-0.975-1.003l0.975-0.975h0.426c-1.031-2.001-2.404-3.785-4.041-5.297  l-0.482,0.48h-0.32l-0.404-0.405l0.59,0.021v-0.578l-0.354-0.349H69.16l-2.215,2.212v1.027h1.146l0.594,0.591h0.596l0.404-0.4  v-1.589l0.756-0.757h0.514l-0.865,0.864v0.682h1.232v0.337l-1.297,1.291c0,0-1.82,0.069-1.75,0c0.068-0.069-0.24-0.47-0.24-0.47  h-0.643l-1.658,1.656h-1.082v0.501h0.516v1.399h-1.584v1.52l0.352,0.354h1.018l1.457-1.454v-0.541h1.439l1.248,1.247l0.518-0.517  l-1.156-1.155h0.729l0.99,0.986v0.594h1.084v-0.395h0.457l1.322,1.322h1.143v0.989l-0.699,0.699h-2.348v-0.608h-2.893V56.7h-4.051  l-2.619,2.614v4.775l1.859,1.856h4.477v2.004l1.127,1.127v7.484l1.051,1.048h1.357l2.746-2.744v-1.53l1.473-1.471V68.5l2.885-2.879  v-1.622h-2.02L74.291,61.762z M72.691,55.209L72.25,54.77l0.014-0.409l0.654-0.656h1.57l1.072,1.071v0.434H72.691z M65.041,51.686  h-0.146l-0.309,0.309v0.34h1.064l0.293-0.294v-0.324l-0.779-0.778l0.205-0.206v-0.245H64.84l0.262-0.257h-0.387l-0.254,0.235v0.402  l0.58,0.577V51.686z M64.264,51.913v-0.24l0.156-0.157v-0.375h-0.352l-0.328,0.271v0.246l-0.279,0.279v0.302h0.477L64.264,51.913z" fill="url(#SVGID_7_)"/>
<radialGradient cx="13.646" cy="289.0732" gradientTransform="matrix(1.0971 0 0 1.0971 57.2001 -264.5479)" gradientUnits="userSpaceOnUse" id="SVGID_8_" r="30.7328">
<stop offset="0" style="stop-color:#96D63A"/>
<stop offset="0.2637" style="stop-color:#96D63A"/>
<stop offset="0.3379" style="stop-color:#7EC52B"/>
<stop offset="0.4353" style="stop-color:#66B41C"/>
<stop offset="0.525" style="stop-color:#57AA12"/>
<stop offset="0.5989" style="stop-color:#52A60F"/>
<stop offset="0.7432" style="stop-color:#358515"/>
<stop offset="0.9087" style="stop-color:#1A641A"/>
<stop offset="1" style="stop-color:#0F581C"/>
</radialGradient>
<path d="M63.16,44.495h-6.24l-0.752,0.757h-1.734v0.819h1.734v1.231h0.869l-0.502,0.501h-0.594v2.11h0.969  l1.088-1.085h0.752l1.852-1.847h0.684l2.24-2.235L63.16,44.495z M53.533,67.646v-0.642h-1.578l-2.744-2.741h-3.177l-0.508,0.51  H44.35l-0.652-0.653v-1.581h-0.701V61.33h-0.449l-0.617,0.613h-0.471c0,0.057-0.006,0.111-0.006,0.166  c0,0.298,0.031,0.583,0.045,0.878l0.221,0.221h0.484l2.105,2.099h0.568v1.544l-0.369,0.373v3.052l1.867,1.865h0.527l0.982,0.981  v3.284c0.91,0.81,1.894,1.533,2.947,2.162h0.693v-0.855l1.34-1.336v-1.369l1.246-1.246h0.656v-2.754l1.385-1.382v-1.327h-1.965  L53.533,67.646z M44.336,58.342l0.365,0.365v0.882h0.395v-1.673l1.158-1.156h0.762l2.285-2.282h1.34l0.367-0.364v-1.154h-0.398  v-0.302h1.895l0.492-0.489v-0.343l-0.574-0.57v-1.566l-0.623,0.624H51.16V49.43h-0.945l-0.699,0.7h-0.383v1.143l-1.021,1.017v-0.94  h-0.82V50.71h-0.99v-0.383l1.568-1.564h0.547l0.851-0.854h0.734l0.732-0.729h0.699l0.684,0.685l-0.289,0.288h-0.701v0.396  l0.826,0.82h0.545l0.488-0.486v-0.531h0.838l0.352-0.354l-1.738-1.735h-0.709l0.313-0.314h1.143l0.717-0.713l0.334-0.326h1.318  l0.297-0.296h-3.008c-0.916,0.407-1.793,0.883-2.627,1.425v0.204h1.188l-0.215,0.214h-0.816l-0.795,0.791h0.494l-0.404,0.406h-0.748  l-0.305-0.307l0.445-0.445H49c-3.732,2.855-6.378,7.036-7.234,11.849l0.408-0.407H44.336z" fill="url(#SVGID_8_)"/>
<radialGradient cx="2.9336" cy="288.8506" gradientTransform="matrix(1.0971 0 0 0.8537 57.2001 -194.2387)" gradientUnits="userSpaceOnUse" id="SVGID_9_" r="10.8044">
<stop offset="0" style="stop-color:#FFFFFF;stop-opacity:0.6"/>
<stop offset="1" style="stop-color:#FFFFFF;stop-opacity:0"/>
</radialGradient>
<path d="M72.525,52.347c0,5.229-5.42,9.466-12.109,9.466c-6.684,0-12.105-4.236-12.105-9.466  c0-5.223,5.421-9.461,12.105-9.461C67.105,42.886,72.525,47.124,72.525,52.347z" fill="url(#SVGID_9_)"/>
<linearGradient gradientUnits="userSpaceOnUse" id="SVGID_10_" x1="60.6523" x2="60.6523" y1="55.791" y2="79.3729">
<stop offset="0" style="stop-color:#000000;stop-opacity:0"/>
<stop offset="1" style="stop-color:#000000"/>
</linearGradient>
<path d="M60.652,42.94c-10.605,0-19.199,8.585-19.199,19.169  c0,10.593,8.593,19.177,19.199,19.177s19.199-8.584,19.199-19.177C79.852,51.525,71.258,42.94,60.652,42.94z M60.652,80.189  c-9.982,0-18.103-8.11-18.103-18.08c0-9.965,8.121-18.071,18.103-18.071s18.104,8.106,18.104,18.071  C78.756,72.079,70.635,80.189,60.652,80.189z" fill="url(#SVGID_10_)" fill-opacity="0.2" stroke-opacity="0.2"/>
<path d="M25.004,48.32l6.711,1.64l-6.711,1.582v1.611l6.697,1.681l-6.697,1.541v1.471l7.957-2.059v-1.682  l-6.416-1.667l6.416-1.555v-1.709l-7.957-2.143V48.32z M25.004,36.421l6.711,1.64l-6.711,1.583v1.61l6.697,1.681l-6.697,1.541v1.471  l7.957-2.059v-1.682l-6.416-1.666l6.416-1.556v-1.709l-7.957-2.143V36.421z M32.961,25.375l-7.957-2.143v1.288l6.711,1.64  l-6.711,1.583v1.61l6.697,1.681l-6.697,1.541v1.471l7.957-2.059v-1.682l-6.416-1.666l6.416-1.556V25.375z" fill="#8A8A8A"/>
<rect fill="none" height="96" width="96"/>
</svg>
