<?xml version="1.0" encoding="UTF-8"?>
<!DOCTYPE svg PUBLIC "-//W3C//DTD SVG 1.1 Tiny//EN" "http://www.w3.org/Graphics/SVG/1.1/DTD/svg11-tiny.dtd">
<svg baseProfile="tiny" height="57px" version="1.1" viewBox="0 0 67 57" width="67px" x="0px" xmlns="http://www.w3.org/2000/svg" xmlns:xlink="http://www.w3.org/1999/xlink" y="0px">
<path d="M64.542,38.163c-0.068-0.047-0.141-0.086-0.221-0.117l-7.219-2.738c0.555-1.772,0.834-3.639,0.834-5.558  c0-0.145-0.01-0.289-0.016-0.434c0.006-0.188,0.016-0.376,0.016-0.565c-0.053-10.499-10.777-21.83-28.006-21.83  c-3.781,0-7.714,0.558-11.701,1.662C8.912,11.306,2.704,16.699,3.136,21.729c0.001,0.005,0.002,0.009,0.003,0.013  c-0.027,0.331-0.031,0.66-0.003,0.988c0.384,3.269,3.354,4.795,10.957,5.633c3.648,0.402,5.645,2.586,5.89,4.679  c-0.206,1.221-1.06,2.17-2.064,3.177c-1.198,1.201-2.122,2.26-2.207,4.019c-0.011,0.217,0.02,0.429,0.04,0.642  c-0.015,0.118-0.034,0.232-0.04,0.357c-0.188,3.887,4.577,7.035,12.458,8.251l1.836,4.833c0.142,0.392,0.518,0.656,0.939,0.658  c0.412,0,0.788-0.259,0.934-0.645l1.662-4.376c0.325,0.009,0.652,0.013,0.98,0.013c3.787,0,7.568-0.806,10.975-2.333l2.543,6.702  c0.031,0.078,0.07,0.152,0.123,0.225c0.186,0.268,0.492,0.428,0.818,0.428c0.021,0,0.102-0.005,0.123-0.008  c0.367-0.045,0.678-0.288,0.813-0.637l3.971-10.459l10.449-3.961c0.338-0.129,0.58-0.439,0.629-0.813  C65.011,38.755,64.847,38.383,64.542,38.163z M31.799,33.482c-0.177-0.301-0.497-0.5-0.856-0.5c-0.414,0-0.79,0.261-0.938,0.648  l-0.557,1.467c-0.142,0.019-0.282,0.043-0.43,0.043c-1.589,0-2.899-1.17-3.142-2.69c0.242-1.521,1.553-2.69,3.142-2.69  c1.588,0,2.896,1.17,3.139,2.69C32.099,32.82,31.974,33.166,31.799,33.482z" fill-opacity="0.15" stroke-opacity="0.15"/>
<path d="M64.257,38.574c-0.035-0.024-0.074-0.045-0.113-0.061l-7.664-2.908c0.635-1.855,0.957-3.821,0.957-5.853  C57.384,19.494,46.853,8.421,29.931,8.421c-3.736,0-7.624,0.552-11.561,1.643C9.283,12.718,3.223,17.896,3.633,22.671  c0.35,2.981,3.199,4.389,10.515,5.194c4.191,0.462,6.384,3.17,6.384,5.606c0,1.837-1.306,3.145-2.26,4.099  c-1.158,1.162-1.984,2.106-2.062,3.689c-0.174,3.612,4.652,6.649,12.322,7.775l1.941,5.113c0.072,0.196,0.258,0.328,0.467,0.329  h0.004c0.207,0,0.393-0.128,0.467-0.322l1.787-4.708c0.438,0.015,0.879,0.022,1.322,0.022c3.906,0,7.785-0.867,11.252-2.512  l2.732,7.201c0.016,0.038,0.035,0.075,0.059,0.109l0.008,0.01c0.094,0.135,0.246,0.213,0.408,0.213c0.021,0,0.041-0.001,0.063-0.004  c0.184-0.022,0.34-0.146,0.406-0.318L53.499,43.5l10.658-4.041c0.172-0.065,0.287-0.226,0.311-0.408S64.405,38.682,64.257,38.574z   M30.942,33.482c-0.208,0-0.396,0.132-0.47,0.326l-1.065,2.807c-0.139,0.018-0.266,0.025-0.389,0.025  c-2.036,0-3.692-1.655-3.692-3.69s1.656-3.69,3.692-3.69c2.034,0,3.689,1.655,3.689,3.69c0,0.81-0.275,1.593-0.771,2.233  L31.411,33.8C31.338,33.606,31.149,33.482,30.942,33.482z" fill-opacity="0.15" stroke-opacity="0.15"/>
<path d="M63.966,38.981l-8.123-3.083c0.705-1.879,1.094-3.932,1.094-6.143C56.872,17.239,41.062,4.297,18.511,10.543  C10.068,13.01,3.731,17.981,4.129,22.612c0.315,2.69,3.046,3.982,10.073,4.756c4.502,0.496,6.829,3.454,6.829,6.104  c0,1.997-1.341,3.387-2.405,4.452c-1.163,1.166-1.851,2.001-1.916,3.36c-0.172,3.561,5.164,6.321,12.186,7.298l2.045,5.385  l0.004,0.011l1.914-5.043c0.549,0.022,1.104,0.035,1.662,0.035c4.016,0,8.027-0.946,11.525-2.701l2.928,7.713l0.006,0.01  l4.127-10.869l0.004-0.01l10.869-4.121L63.966,38.981z M29.019,28.76c2.314,0,4.189,1.875,4.189,4.19  c0,1.266-0.572,2.386-1.457,3.153c0,0-2.475,1.037-2.732,1.037c-2.316,0-4.192-1.875-4.192-4.19S26.702,28.76,29.019,28.76z" fill-opacity="0.4" stroke-opacity="0.4"/>
<linearGradient gradientUnits="userSpaceOnUse" id="SVGID_1_" x1="30.5239" x2="30.5239" y1="49.7578" y2="-9.1933">
<stop offset="0" style="stop-color:#B2B2C9"/>
<stop offset="0.1518" style="stop-color:#C2C2D4"/>
<stop offset="0.5064" style="stop-color:#E3E3EC"/>
<stop offset="0.8019" style="stop-color:#F8F8FA"/>
<stop offset="1" style="stop-color:#FFFFFF"/>
</linearGradient>
<path d="M18.511,9.543C10.068,12.01,3.731,16.981,4.129,21.612c0.315,2.69,3.046,3.982,10.073,4.756  c4.502,0.496,6.829,3.454,6.829,6.104c0,1.997-1.341,3.387-2.405,4.452c-1.163,1.166-1.851,2.001-1.916,3.36  c-0.216,4.468,8.232,7.686,17.811,7.686c11.209,0,22.418-7.344,22.416-19.214C56.872,16.239,41.062,3.297,18.511,9.543z   M29.019,36.862c-2.71,0-4.915-2.204-4.915-4.912s2.205-4.912,4.915-4.912c2.708,0,4.912,2.204,4.912,4.912  S31.727,36.862,29.019,36.862z" fill="url(#SVGID_1_)"/>
<linearGradient gradientUnits="userSpaceOnUse" id="SVGID_2_" x1="30.5239" x2="30.5239" y1="60.874" y2="-9.6095">
<stop offset="0" style="stop-color:#B2B2C9"/>
<stop offset="0.1038" style="stop-color:#BDBDD1"/>
<stop offset="0.4872" style="stop-color:#E1E1EA"/>
<stop offset="0.7996" style="stop-color:#F7F7F9"/>
<stop offset="1" style="stop-color:#FFFFFF"/>
</linearGradient>
<path d="M18.511,9.543C10.068,12.01,3.731,16.981,4.129,21.612c0.315,2.69,3.046,3.982,10.073,4.756  c4.502,0.496,6.829,3.454,6.829,6.104c0,1.997-1.341,3.387-2.405,4.452c-1.163,1.166-1.851,2.001-1.916,3.36  c-0.216,4.468,8.232,7.686,17.811,7.686c11.209,0,22.418-7.344,22.416-19.214C56.872,16.239,41.062,3.297,18.511,9.543z   M49.313,42.029c-3.977,3.14-9.367,4.94-14.793,4.94c-6.971,0-13.324-1.751-15.807-4.356c-0.705-0.739-1.043-1.507-1.005-2.281  c0.047-0.971,0.517-1.592,1.624-2.702c1.074-1.075,2.698-2.7,2.698-5.158c0-3.104-2.651-6.539-7.72-7.098  c-7.344-0.808-8.984-2.135-9.189-3.878c-0.332-3.88,5.543-8.619,13.668-10.993c3.787-1.049,7.539-1.582,11.141-1.582  c16,0,25.957,10.299,26.006,19.84C55.938,35.401,52.335,39.643,49.313,42.029z" fill="url(#SVGID_2_)"/>
<linearGradient gradientUnits="userSpaceOnUse" id="SVGID_3_" x1="30.0649" x2="30.0649" y1="33.5693" y2="8.0704">
<stop offset="0" style="stop-color:#FFFFFF;stop-opacity:0"/>
<stop offset="1" style="stop-color:#FFFFFF;stop-opacity:0.5"/>
</linearGradient>
<path d="M56.019,23.59C52.358,13.027,37.94,4.161,18.511,9.543C10.068,12.01,3.731,16.981,4.129,21.612  c0.315,2.69,3.046,3.982,10.073,4.756c4.502,0.496,6.829,3.454,6.829,6.104c0,0.307-0.04,0.593-0.097,0.871  c1.049-0.711,2.121-1.39,3.216-2.032c0.315-2.407,2.376-4.272,4.868-4.272c0.895,0,1.73,0.243,2.453,0.663  c6.643-2.706,13.895-4.202,21.494-4.202C53.989,23.499,55.007,23.535,56.019,23.59z" fill="url(#SVGID_3_)"/>
<linearGradient gradientUnits="userSpaceOnUse" id="SVGID_4_" x1="29.0171" x2="29.0171" y1="24.7476" y2="39.887">
<stop offset="0" style="stop-color:#B2B2C9"/>
<stop offset="0.459" style="stop-color:#D7D7E3"/>
<stop offset="1" style="stop-color:#FFFFFF"/>
</linearGradient>
<path d="M29.019,26.76c-2.863,0-5.192,2.328-5.192,5.19s2.329,5.19,5.192,5.19  c2.861,0,5.189-2.328,5.189-5.19S31.88,26.76,29.019,26.76z M29.019,36.141c-2.316,0-4.192-1.875-4.192-4.19s1.876-4.19,4.192-4.19  c2.314,0,4.189,1.875,4.189,4.19S31.333,36.141,29.019,36.141z" fill="url(#SVGID_4_)"/>
<linearGradient gradientUnits="userSpaceOnUse" id="SVGID_5_" x1="27.2373" x2="27.2373" y1="10.2119" y2="21.113">
<stop offset="0" style="stop-color:#B2B2C9"/>
<stop offset="0.0594" style="stop-color:#BABACF"/>
<stop offset="0.3053" style="stop-color:#D8D8E4"/>
<stop offset="0.5475" style="stop-color:#EEEEF3"/>
<stop offset="0.7819" style="stop-color:#FBFBFC"/>
<stop offset="1" style="stop-color:#FFFFFF"/>
</linearGradient>
<path d="M27.237,20.483c-2.501,0-4.535-2.036-4.535-4.538c0-2.501,2.034-4.535,4.535-4.535  s4.535,2.034,4.535,4.535C31.772,18.447,29.738,20.483,27.237,20.483L27.237,20.483z" fill="url(#SVGID_5_)"/>
<linearGradient gradientUnits="userSpaceOnUse" id="SVGID_6_" x1="27.2373" x2="27.2373" y1="19.9521" y2="11.9278">
<stop offset="0" style="stop-color:#AED63A"/>
<stop offset="1" style="stop-color:#0F581C"/>
</linearGradient>
<path d="M27.237,12.41c-1.951,0-3.535,1.585-3.535,3.535c0,1.957,1.584,3.538,3.535,3.538  c1.955,0,3.535-1.581,3.535-3.538C30.772,13.995,29.192,12.41,27.237,12.41z" fill="url(#SVGID_6_)"/>
<linearGradient gradientTransform="matrix(1 0 0 -1 0 3208.4063)" gradientUnits="userSpaceOnUse" id="SVGID_7_" x1="27.2285" x2="27.2285" y1="3189.96" y2="3192.2646">
<stop offset="0" style="stop-color:#FFFFFF;stop-opacity:0.7"/>
<stop offset="1" style="stop-color:#F2F2F2;stop-opacity:0"/>
</linearGradient>
<path d="M29.317,17.086c0-0.751-0.936-0.619-2.088-0.619c-1.155,0-2.09-0.132-2.09,0.619  s0.935,1.36,2.09,1.36C28.382,18.446,29.317,17.837,29.317,17.086z" fill="url(#SVGID_7_)"/>
<linearGradient gradientUnits="userSpaceOnUse" id="SVGID_8_" x1="15.3091" x2="15.3091" y1="13.4141" y2="24.3151">
<stop offset="0" style="stop-color:#B2B2C9"/>
<stop offset="0.0594" style="stop-color:#BABACF"/>
<stop offset="0.3053" style="stop-color:#D8D8E4"/>
<stop offset="0.5475" style="stop-color:#EEEEF3"/>
<stop offset="0.7819" style="stop-color:#FBFBFC"/>
<stop offset="1" style="stop-color:#FFFFFF"/>
</linearGradient>
<path d="M15.309,23.686c-2.501,0-4.535-2.036-4.535-4.538c0-2.501,2.034-4.535,4.535-4.535  s4.536,2.034,4.536,4.535C19.845,21.649,17.81,23.686,15.309,23.686L15.309,23.686z" fill="url(#SVGID_8_)"/>
<linearGradient gradientUnits="userSpaceOnUse" id="SVGID_9_" x1="15.3091" x2="15.3091" y1="20.3271" y2="13.2011">
<stop offset="0" style="stop-color:#EA2227"/>
<stop offset="1" style="stop-color:#91191C"/>
</linearGradient>
<path d="M15.309,15.612c-1.95,0-3.535,1.585-3.535,3.535c0,1.957,1.585,3.538,3.535,3.538  c1.955,0,3.536-1.581,3.536-3.538C18.845,17.197,17.264,15.612,15.309,15.612z" fill="url(#SVGID_9_)"/>
<linearGradient gradientTransform="matrix(1 0 0 -1 0 3208.4063)" gradientUnits="userSpaceOnUse" id="SVGID_10_" x1="15.2998" x2="15.2998" y1="3186.7578" y2="3189.0625">
<stop offset="0" style="stop-color:#FFFFFF;stop-opacity:0.7"/>
<stop offset="1" style="stop-color:#F2F2F2;stop-opacity:0"/>
</linearGradient>
<path d="M17.389,20.288c0-0.751-0.936-0.619-2.087-0.619c-1.156,0-2.091-0.132-2.091,0.619  s0.935,1.36,2.091,1.36C16.453,21.648,17.389,21.039,17.389,20.288z" fill="url(#SVGID_10_)"/>
<linearGradient gradientUnits="userSpaceOnUse" id="SVGID_11_" x1="39.8906" x2="39.8906" y1="11.8135" y2="22.7145">
<stop offset="0" style="stop-color:#B2B2C9"/>
<stop offset="0.0594" style="stop-color:#BABACF"/>
<stop offset="0.3053" style="stop-color:#D8D8E4"/>
<stop offset="0.5475" style="stop-color:#EEEEF3"/>
<stop offset="0.7819" style="stop-color:#FBFBFC"/>
<stop offset="1" style="stop-color:#FFFFFF"/>
</linearGradient>
<path d="M39.89,22.085c-2.5,0-4.535-2.036-4.535-4.538c0-2.501,2.035-4.535,4.535-4.535  c2.502,0,4.537,2.034,4.537,4.535C44.427,20.049,42.392,22.085,39.89,22.085L39.89,22.085z" fill="url(#SVGID_11_)"/>
<linearGradient gradientUnits="userSpaceOnUse" id="SVGID_12_" x1="39.8906" x2="39.8906" y1="21.9521" y2="12.5472">
<stop offset="0" style="stop-color:#009AFF"/>
<stop offset="1" style="stop-color:#051F7D"/>
</linearGradient>
<path d="M39.89,14.012c-1.949,0-3.535,1.585-3.535,3.535c0,1.957,1.586,3.538,3.535,3.538  c1.957,0,3.537-1.581,3.537-3.538C43.427,15.597,41.847,14.012,39.89,14.012z" fill="url(#SVGID_12_)"/>
<linearGradient gradientTransform="matrix(1 0 0 -1 0 3208.4063)" gradientUnits="userSpaceOnUse" id="SVGID_13_" x1="39.8818" x2="39.8818" y1="3188.3584" y2="3190.6631">
<stop offset="0" style="stop-color:#FFFFFF;stop-opacity:0.7"/>
<stop offset="1" style="stop-color:#F2F2F2;stop-opacity:0"/>
</linearGradient>
<path d="M41.97,18.688c0-0.751-0.934-0.619-2.086-0.619c-1.156,0-2.09-0.132-2.09,0.619  s0.934,1.36,2.09,1.36C41.036,20.048,41.97,19.438,41.97,18.688z" fill="url(#SVGID_13_)"/>
<path d="M27.237,12.41c-1.951,0-3.535,1.585-3.535,3.535c0,1.957,1.584,3.538,3.535,3.538  c1.955,0,3.535-1.581,3.535-3.538C30.772,13.995,29.192,12.41,27.237,12.41z M27.237,18.983c-1.674,0-3.035-1.363-3.035-3.038  c0-1.674,1.361-3.035,3.035-3.035s3.035,1.361,3.035,3.035C30.272,17.62,28.911,18.983,27.237,18.983z M15.309,15.612  c-1.95,0-3.535,1.585-3.535,3.535c0,1.957,1.585,3.538,3.535,3.538c1.955,0,3.536-1.581,3.536-3.538  C18.845,17.197,17.264,15.612,15.309,15.612z M15.309,22.186c-1.674,0-3.035-1.363-3.035-3.038c0-1.674,1.361-3.035,3.035-3.035  s3.036,1.361,3.036,3.035C18.345,20.822,16.982,22.186,15.309,22.186z M39.89,14.012c-1.949,0-3.535,1.585-3.535,3.535  c0,1.957,1.586,3.538,3.535,3.538c1.957,0,3.537-1.581,3.537-3.538C43.427,15.597,41.847,14.012,39.89,14.012z M39.89,20.585  c-1.674,0-3.035-1.363-3.035-3.038c0-1.674,1.361-3.035,3.035-3.035c1.676,0,3.037,1.361,3.037,3.035  C42.927,19.222,41.565,20.585,39.89,20.585z" fill-opacity="0.3" stroke-opacity="0.3"/>
<rect fill="none" height="57" width="66.999"/>
<path d="M56.302,33.469l-2.035-0.772l-3.885-10.242c-0.199-0.517-0.664-0.879-1.211-0.945  c-0.035-0.004-0.158-0.013-0.191-0.013c-0.492,0-0.953,0.241-1.232,0.643c-0.07,0.098-0.129,0.207-0.178,0.329L43.69,32.697  l-9.833,3.731l-1.038-2.737c-0.662,1.443-2.109,2.449-3.801,2.449c-0.29,0-0.573-0.029-0.847-0.086l-1.141,3.008l-6.675,2.534  c-0.565,0.24-0.925,0.793-0.914,1.409c0.012,0.614,0.391,1.153,0.969,1.375l6.613,2.501l0.16,0.42  c2.247,0.424,4.713,0.662,7.268,0.667l0.408-1.077l6.615-2.512c0.523-0.199,0.891-0.673,0.955-1.238  c0.014-0.115,0.012-0.229,0-0.341l1.256,0.477l0.998,2.628C50.222,43.544,54.702,39.242,56.302,33.469z" fill-opacity="0.1" stroke-opacity="0.1"/>
<path d="M56.167,33.952l-2.289-0.868l-3.963-10.45c-0.133-0.343-0.445-0.585-0.807-0.629  c-0.023-0.003-0.105-0.009-0.129-0.009c-0.328,0-0.637,0.162-0.824,0.431c-0.047,0.066-0.086,0.14-0.117,0.219l-3.961,10.439  l-10.434,3.96c-0.021,0.008-0.048,0.02-0.074,0.033l-1.064-2.807c-0.752,1.127-2.031,1.869-3.486,1.869  c-0.113,0-0.221-0.024-0.332-0.033l-1.268,3.343l-6.867,2.606c-0.377,0.16-0.617,0.528-0.609,0.939  c0.008,0.41,0.26,0.77,0.646,0.917l6.824,2.581l0.349,0.917c1.93,0.331,4.014,0.516,6.16,0.546l0.553-1.453l6.824-2.591  c0.35-0.133,0.592-0.448,0.637-0.826c0.041-0.373-0.129-0.735-0.445-0.947c-0.063-0.04-0.127-0.074-0.197-0.102L34.47,39.45  l-0.091-0.237l9.696,3.677l1.064,2.81C50.313,43.368,54.507,39.326,56.167,33.952z" fill-opacity="0.1" stroke-opacity="0.1"/>
<path d="M41.114,42.506l-7.033-2.668l-1.941-5.117c-0.725,0.817-1.758,1.345-2.924,1.4l-1.409,3.717l-7.06,2.679  c-0.188,0.08-0.309,0.266-0.305,0.47c0.004,0.205,0.131,0.386,0.322,0.459l7.035,2.661l0.527,1.391  c1.609,0.249,3.31,0.402,5.063,0.449l0.695-1.83l7.035-2.671c0.176-0.066,0.295-0.228,0.316-0.413  c0.021-0.187-0.066-0.37-0.223-0.475C41.183,42.537,41.149,42.52,41.114,42.506z M53.491,33.472l-4.043-10.658  c-0.066-0.173-0.227-0.291-0.41-0.313c-0.02-0.003-0.039-0.004-0.059-0.004c-0.164,0-0.322,0.083-0.416,0.219  c-0.023,0.033-0.043,0.07-0.059,0.108l-4.039,10.649l-10.648,4.041c-0.028,0.011-0.072,0.034-0.098,0.05  c-0.164,0.1-0.256,0.283-0.238,0.474s0.142,0.354,0.32,0.422l10.66,4.043l1.135,2.991c4.811-2.288,8.705-6.087,10.408-11.067  L53.491,33.472z" fill-opacity="0.3" stroke-opacity="0.3"/>
<linearGradient gradientUnits="userSpaceOnUse" id="SVGID_14_" x1="42.4609" x2="42.4609" y1="36.0449" y2="97.4787">
<stop offset="0" style="stop-color:#F4F2AB"/>
<stop offset="1" style="stop-color:#E4C017"/>
</linearGradient>
<path d="M63.966,37.981L53.106,33.86h-0.002l-4.125-10.869l-0.006,0.01L44.854,33.86h-0.002l-10.857,4.121  l-0.016,0.01l10.865,4.121l0.008,0.01l4.121,10.859l0.006,0.01l4.127-10.869l0.004-0.01l10.869-4.121L63.966,37.981z M33.696,40.227  l-0.004-0.005l-2.748-7.244l-0.004,0.009l-2.747,7.236l-0.002,0.004l-7.24,2.747l-0.009,0.004l7.244,2.75l0.005,0.001l2.749,7.238  l0.004,0.011l2.752-7.249h0.002l7.244-2.751l-0.006-0.004L33.696,40.227z M30.94,42.974v-0.005l0.004,0.005H30.94z" fill="url(#SVGID_14_)"/>
<linearGradient gradientUnits="userSpaceOnUse" id="SVGID_15_" x1="30.9429" x2="30.9429" y1="45.7031" y2="42.3577">
<stop offset="0" style="stop-color:#F4F2AB"/>
<stop offset="1" style="stop-color:#E4C017"/>
</linearGradient>
<path d="M20.942,42.978l7.244,2.75l2.754-2.754h-9.989L20.942,42.978z M40.937,42.974h-9.992l2.754,2.755  l7.244-2.751L40.937,42.974z" fill="url(#SVGID_15_)"/>
<linearGradient gradientUnits="userSpaceOnUse" id="SVGID_16_" x1="34.3506" x2="30.6241" y1="42.9775" y2="42.9775">
<stop offset="0" style="stop-color:#F4F2AB"/>
<stop offset="1" style="stop-color:#E4C017"/>
</linearGradient>
<path d="M33.692,40.222l-2.748-7.244l-0.004,0.009v9.982l0.002,0.002L33.692,40.222z M30.944,42.974H30.94  v9.993l0.004,0.011l2.752-7.249h0.002L30.944,42.974z" fill="url(#SVGID_16_)"/>
<linearGradient gradientUnits="userSpaceOnUse" id="SVGID_17_" x1="31.1963" x2="26.3494" y1="42.9766" y2="42.9766">
<stop offset="0" style="stop-color:#F4F2AB"/>
<stop offset="1" style="stop-color:#E4C017"/>
</linearGradient>
<path d="M28.193,40.223l2.747,2.746v-9.982L28.193,40.223z M28.191,45.729l2.749,7.238v-9.993l-2.754,2.754  L28.191,45.729z" fill="url(#SVGID_17_)"/>
<linearGradient gradientUnits="userSpaceOnUse" id="SVGID_18_" x1="30.9438" x2="30.9438" y1="41.4189" y2="47.0543">
<stop offset="0" style="stop-color:#F4F2AB"/>
<stop offset="1" style="stop-color:#E4C017"/>
</linearGradient>
<path d="M33.696,40.227l-0.004-0.005l-2.75,2.749l0.002,0.003h9.992L33.696,40.227z M28.191,40.227  l-7.24,2.747h9.989v-0.005l-2.747-2.746L28.191,40.227z" fill="url(#SVGID_18_)"/>
<linearGradient gradientUnits="userSpaceOnUse" id="SVGID_19_" x1="48.9795" x2="48.9795" y1="42.0742" y2="37.0578">
<stop offset="0" style="stop-color:#F4F2AB"/>
<stop offset="1" style="stop-color:#E4C017"/>
</linearGradient>
<path d="M33.979,37.991l10.865,4.121l4.129-4.131H33.995L33.979,37.991z M63.966,37.981H48.981l4.129,4.131  l10.869-4.121L63.966,37.981z" fill="url(#SVGID_19_)"/>
<linearGradient gradientUnits="userSpaceOnUse" id="SVGID_20_" x1="54.0889" x2="48.4991" y1="37.9912" y2="37.9912">
<stop offset="0" style="stop-color:#F4F2AB"/>
<stop offset="1" style="stop-color:#E4C017"/>
</linearGradient>
<polygon fill="url(#SVGID_20_)" points="48.981,37.981 48.978,37.981 53.104,33.86 48.979,22.991 48.974,23.001 48.974,52.981   48.979,52.991 53.106,42.122 53.11,42.112 "/>
<linearGradient gradientUnits="userSpaceOnUse" id="SVGID_21_" x1="49.3574" x2="42.0905" y1="37.9912" y2="37.9912">
<stop offset="0" style="stop-color:#F4F2AB"/>
<stop offset="1" style="stop-color:#E4C017"/>
</linearGradient>
<path d="M44.854,33.86l4.119,4.121v-14.98L44.854,33.86z M44.853,42.122l4.121,10.859v-15l-4.129,4.131  L44.853,42.122z" fill="url(#SVGID_21_)"/>
<linearGradient gradientUnits="userSpaceOnUse" id="SVGID_22_" x1="48.9805" x2="48.9805" y1="35.6533" y2="44.0923">
<stop offset="0" style="stop-color:#F4F2AB"/>
<stop offset="1" style="stop-color:#E4C017"/>
</linearGradient>
<path d="M53.106,33.86h-0.002l-4.127,4.121h14.988L53.106,33.86z M44.853,33.86l-10.857,4.121h14.979  l-4.119-4.121H44.853z" fill="url(#SVGID_22_)"/>
</svg>
