<?xml version="1.0" encoding="UTF-8"?>
<!DOCTYPE svg PUBLIC "-//W3C//DTD SVG 1.1 Tiny//EN" "http://www.w3.org/Graphics/SVG/1.1/DTD/svg11-tiny.dtd">
<svg baseProfile="tiny" height="96px" version="1.1" viewBox="0 0 96 96" width="96px" x="0px" xmlns="http://www.w3.org/2000/svg" xmlns:xlink="http://www.w3.org/1999/xlink" y="0px">
<path d="M82.516,55.289H77V20c0-2.757-2.243-5-5-5H51.838c0.083-0.322,0.125-0.656,0.125-0.995c0-2.206-1.795-4-4-4  s-4,1.794-4,4c0,0.339,0.042,0.671,0.126,0.995H24c-2.757,0-5,2.243-5,5v57c0,2.757,2.243,5,5,5h30.516v1.288c0,2.206,1.795,4,4,4  h24c2.206,0,4-1.794,4-4V59.289C86.516,57.084,84.722,55.289,82.516,55.289z M47.963,13.505c0.275,0,0.5,0.224,0.5,0.5  s-0.225,0.5-0.5,0.5s-0.5-0.224-0.5-0.5S47.688,13.505,47.963,13.505z" fill-opacity="0.15" stroke-opacity="0.15"/>
<path d="M82.516,55.789H76.5V20c0-2.481-2.019-4.5-4.5-4.5H51.527l-0.354-0.102c0.19-0.438,0.29-0.91,0.29-1.394  c0-1.93-1.57-3.5-3.5-3.5s-3.5,1.57-3.5,3.5c0,0.485,0.101,0.96,0.294,1.399L44.422,15.5H24c-2.481,0-4.5,2.019-4.5,4.5v57  c0,2.481,2.019,4.5,4.5,4.5h31.016v1.788c0,1.93,1.57,3.5,3.5,3.5h24c1.93,0,3.5-1.57,3.5-3.5V59.289  C86.016,57.359,84.445,55.789,82.516,55.789z M47.963,13.005c0.551,0,1,0.448,1,1s-0.449,1-1,1s-1-0.448-1-1  S47.412,13.005,47.963,13.005z" fill-opacity="0.15" stroke-opacity="0.15"/>
<path d="M82.516,56.289H76V20c0-2.2-1.801-4-4-4H51.457l-1.025-0.294c0.334-0.483,0.531-1.068,0.531-1.701  c0-1.657-1.342-3-3-3c-1.656,0-3,1.343-3,3c0,0.636,0.201,1.223,0.537,1.708L44.492,16H24c-2.201,0-4,1.8-4,4v57c0,2.2,1.799,4,4,4  h31.516v2.288c0,1.656,1.342,3,3,3h24c1.656,0,3-1.344,3-3V59.289C85.516,57.631,84.172,56.289,82.516,56.289z M47.963,12.505  c0.828,0,1.5,0.673,1.5,1.5s-0.672,1.5-1.5,1.5c-0.826,0-1.5-0.673-1.5-1.5S47.137,12.505,47.963,12.505z" fill-opacity="0.4" stroke-opacity="0.4"/>
<linearGradient gradientUnits="userSpaceOnUse" id="SVGID_1_" x1="47.9995" x2="47.9995" y1="-24.1919" y2="68.2746">
<stop offset="0" style="stop-color:#FFFFFF"/>
<stop offset="0.2007" style="stop-color:#F7F7F7"/>
<stop offset="0.5146" style="stop-color:#E1E1E1"/>
<stop offset="0.9007" style="stop-color:#BCBCBC"/>
<stop offset="1" style="stop-color:#B2B2B2"/>
</linearGradient>
<path d="M72,15H24c-2.201,0-4,1.8-4,4v57c0,2.2,1.799,4,4,4h48c2.199,0,4-1.8,4-4V19C76,16.8,74.199,15,72,15  z" fill="url(#SVGID_1_)"/>
<rect fill-opacity="0.4" height="54.999" stroke-opacity="0.4" width="48" x="24" y="21.001"/>
<path d="M72,20.001H24c-0.553,0-1,0.448-1,1V76c0,0.553,0.447,1,1,1h48c0.553,0,1-0.447,1-1V21.001  C73,20.449,72.553,20.001,72,20.001z" fill-opacity="0.15" stroke-opacity="0.15"/>
<rect fill="#FFFFFF" height="54.999" width="48" x="24" y="20.001"/>
<linearGradient gradientUnits="userSpaceOnUse" id="SVGID_2_" x1="47.9995" x2="47.9995" y1="19.3164" y2="226.532">
<stop offset="0" style="stop-color:#FFFFFF"/>
<stop offset="1" style="stop-color:#B2B2C9"/>
</linearGradient>
<rect fill="url(#SVGID_2_)" height="54.999" width="48" x="24" y="20.001"/>
<linearGradient gradientUnits="userSpaceOnUse" id="SVGID_3_" x1="47.9624" x2="47.9624" y1="14.063" y2="21.8804">
<stop offset="0" style="stop-color:#F2EA96"/>
<stop offset="0.9877" style="stop-color:#E4C017"/>
<stop offset="1" style="stop-color:#E4C017"/>
</linearGradient>
<path d="M56.963,18.005h-2v-2l-4.531-1.299c0.334-0.483,0.531-1.068,0.531-1.701c0-1.657-1.342-3-3-3  c-1.656,0-3,1.343-3,3c0,0.636,0.201,1.223,0.537,1.708l-4.537,1.292v2h-2c0,0-5-0.339-5,4.996h28  C61.963,17.666,56.963,18.005,56.963,18.005z M47.963,14.505c-0.826,0-1.5-0.673-1.5-1.5s0.674-1.5,1.5-1.5  c0.828,0,1.5,0.673,1.5,1.5S48.791,14.505,47.963,14.505z" fill="url(#SVGID_3_)"/>
<linearGradient gradientUnits="userSpaceOnUse" id="SVGID_4_" x1="47.9634" x2="47.9634" y1="14.0225" y2="10.9714">
<stop offset="0" style="stop-color:#F2EA96"/>
<stop offset="0.9877" style="stop-color:#E4C017"/>
<stop offset="1" style="stop-color:#E4C017"/>
</linearGradient>
<path d="M47.963,11.003c-1.104,0-1.998,0.898-1.998,2.002s0.895,1.998,1.998,1.998s1.998-0.895,1.998-1.998  S49.066,11.003,47.963,11.003z M47.963,14.505c-0.826,0-1.5-0.673-1.5-1.5s0.674-1.5,1.5-1.5c0.828,0,1.5,0.673,1.5,1.5  S48.791,14.505,47.963,14.505z" fill="url(#SVGID_4_)"/>
<linearGradient gradientUnits="userSpaceOnUse" id="SVGID_5_" x1="47.9644" x2="47.9644" y1="26.1621" y2="21.5371">
<stop offset="0" style="stop-color:#B2B2C9;stop-opacity:0"/>
<stop offset="1" style="stop-color:#B2B2C9"/>
</linearGradient>
<rect fill="url(#SVGID_5_)" height="4" width="28.002" x="33.963" y="23.001"/>
<path d="M45.5,14.713l-4.537,1.292v2h-2c0,0-5-0.339-5,4.996H34l0.479-0.501c0.266-3.857,3.486-3.949,4.305-4.003  c0.098,0,0.135,0.006,0.135,0.003l2.545,0.006v-2.127L46.309,15l-0.023-0.033L45.5,14.713z M56.963,18.005l0.039,0.498  c0,0,0.037-0.006,0.137-0.006c0.82,0.054,4.043,0.148,4.307,4.003l0.518,0.5C61.963,17.666,56.963,18.005,56.963,18.005z   M54.963,16.005l-4.531-1.299c0.004-0.006,0.006-0.013,0.01-0.019l-0.818,0.305l4.84,1.387v2.127h2.5v-0.501h-2V16.005z" fill="#F4F2AB"/>
<linearGradient gradientUnits="userSpaceOnUse" id="SVGID_6_" x1="47.9624" x2="47.9624" y1="14.9619" y2="41.0876">
<stop offset="0" style="stop-color:#F4F2AB"/>
<stop offset="1" style="stop-color:#A98300"/>
</linearGradient>
<path d="M46.285,14.967l-0.373-0.539c-0.285-0.408-0.447-0.896-0.451-1.423  c0.004-1.382,1.121-2.499,2.502-2.499s2.496,1.117,2.5,2.499c0,0.527-0.164,1.012-0.443,1.414l-0.396,0.573l0.818-0.305  c0.328-0.479,0.521-1.058,0.521-1.683c0-1.657-1.342-3-3-3c-1.656,0-3,1.343-3,3c0,0.636,0.201,1.223,0.537,1.708L46.285,14.967z" fill="url(#SVGID_6_)"/>
<path d="M61.445,22.5H34.479L34,23.001h27.963V23L61.445,22.5z" fill="#A98300"/>
<path d="M34,36.001h-4v2h4V36.001z M44,36.001h-9v2h9V36.001z M57,40.001H45v2h12V40.001z M54,36.001h-9v2h9V36.001z   M51,44.001H41v2h10V44.001z M44,40.001H30v2h14V40.001z M40,44.001H30v2h10V44.001z M35,50.001h9v-2h-9V50.001z M54,48.001h-9v2h9  V48.001z M45,54.001h14v-2H45V54.001z M41,58.001h10v-2H41V58.001z M58.906,36.001h-4v2h4V36.001z M65.906,36.001h-6v2h6V36.001z   M64,40.001h-6v2h6V40.001z M60,44.001v2.001h6v-2.001H60z M55,46.002h4v-2.001h-4V46.002z M34,48.001h-4v2h4V48.001z M54,44.001h-2  v2.001h2V44.001z M60,54.001h2.035v-2H60V54.001z M44,52.001H30v2h14V52.001z M30,58.001h10v-2H30V58.001z M54.906,50.001h10v-2h-10  V50.001z" fill-opacity="0.1" stroke-opacity="0.1"/>
<path d="M33,36.001h-1v1h1V36.001z M34,38.001v-1h-1v1H34z M31,36.001h-1v1h1V36.001z M32,38.001v-1h-1v1H32z   M39,40.001h-1v1h1V40.001z M41,40.001h-1v1h1V40.001z M37,40.001h-1v1h1V40.001z M35,40.001h-1v1h1V40.001z M43,40.001h-1v1h1  V40.001z M32,42.001v-1h-1v1H32z M38,42.001v-1h-1v1H38z M34,42.001v-1h-1v1H34z M40,42.001v-1h-1v1H40z M44,42.001v-1h-1v1H44z   M42,42.001v-1h-1v1H42z M36,42.001v-1h-1v1H36z M33,40.001h-1v1h1V40.001z M31,40.001h-1v1h1V40.001z M39,36.001h-1v1h1V36.001z   M41,36.001h-1v1h1V36.001z M37,36.001h-1v1h1V36.001z M43,36.001h-1v1h1V36.001z M42,38.001v-1h-1v1H42z M44,38.001v-1h-1v1H44z   M38,38.001v-1h-1v1H38z M40,38.001v-1h-1v1H40z M36,37.001h-1v1h1V37.001z M40,46.001v-1h-1v1H40z M36,46.001v-1h-1v1H36z   M39,44.001h-1v1h1V44.001z M38,46.001v-1h-1v1H38z M33,44.001h-1v1h1V44.001z M31,44.001h-1v1h1V44.001z M32,46.001v-1h-1v1H32z   M35,44.001h-1v1h1V44.001z M37,44.001h-1v1h1V44.001z M34,46.001v-1h-1v1H34z M52,38.001v-1h-1v1H52z M54,38.001v-1h-1v1H54z   M53,36.001h-1v1h1V36.001z M47,36.001h-1v1h1V36.001z M51,36.001h-1v1h1V36.001z M46,37.001h-1v1h1V37.001z M50,38.001v-1h-1v1H50z   M48,38.001v-1h-1v1H48z M49,36.001h-1v1h1V36.001z M49,44.001h-1v1h1V44.001z M51,44.001h-1v1h1V44.001z M44,44.001v1h1v-1H44z   M50,46.001v-1h-1v1H50z M48,46.001v-1h-1v1H48z M43,46.001h1v-1h-1V46.001z M42,44.001v1h1v-1H42z M46,46.001v-1h-1v1H46z   M47,44.001h-1v1h1V44.001z M41,46.001h1v-1h-1V46.001z M54,42.001v-1h-1v1H54z M46,41.001h-1v1h1V41.001z M56,42.001v-1h-1v1H56z   M48,42.001v-1h-1v1H48z M50,42.001v-1h-1v1H50z M57,40.001h-1v1h1V40.001z M52,42.001v-1h-1v1H52z M47,40.001h-1v1h1V40.001z   M55,40.001h-1v1h1V40.001z M49,40.001h-1v1h1V40.001z M51,40.001h-1v1h1V40.001z M53,40.001h-1v1h1V40.001z M56.906,36.001h-1v1h1  V36.001z M58.906,36.001h-1v1h1V36.001z M57.906,38.001v-1h-1v1H57.906z M55.906,37.001h-1v1h1V37.001z M60.906,37.001h-1v1h1  V37.001z M62.906,38.001v-1h-1v1H62.906z M61.906,36.001h-1v1h1V36.001z M64.906,38.001v-1h-1v1H64.906z M63.906,36.001h-1v1h1  V36.001z M65.906,36.001h-1v1h1V36.001z M64,40.001h-1v1h1V40.001z M60,40.001h-1v1h1V40.001z M62,40.001h-1v1h1V40.001z M58,42.001  h1v-1h-1V42.001z M61,42.001v-1h-1v1H61z M63,42.001v-1h-1v1H63z M63,44.001v1h1v-1H63z M61,44.001v1h1v-1H61z M60,46.001h1v-1h-1  V46.001z M65,44.001v1h1v-1H65z M62,46.001h1v-1h-1V46.001z M64,46.001h1v-1h-1V46.001z M61,53.001h1v-1h-1V53.001z M60,54.001h1v-1  h-1V54.001z M58,46.001v-1h-1v1H58z M59,44.001h-1v1h1V44.001z M55,46.001h1v-1h-1V46.001z M56,44.001v1h1v-1H56z M54,44.001h-1v1h1  V44.001z M52,46.001h1v-1h-1V46.001z M38,48.001v1h1v-1H38z M40,48.001v1h1v-1H40z M36,48.001v1h1v-1H36z M42,48.001v1h1v-1H42z   M52,48.001v1h1v-1H52z M46,48.001v1h1v-1H46z M50,48.001v1h1v-1H50z M48,48.001v1h1v-1H48z M58,53.001h1v-1h-1V53.001z M30,56.001  v1h1v-1H30z M31,48.001h-1v1h1V48.001z M36,56.001v1h1v-1H36z M32,56.001v1h1v-1H32z M33,48.001h-1v1h1V48.001z M48,56.001v1h1v-1  H48z M42,56.001v1h1v-1H42z M46,56.001v1h1v-1H46z M50,57.001h1v-1h-1V57.001z M44,56.001v1h1v-1H44z M38,52.001v1h1v-1H38z   M41,52.001h-1v1h1V52.001z M36,52.001v1h1v-1H36z M43,52.001h-1v1h1V52.001z M32,52.001v1h1v-1H32z M30,52.001v1h1v-1H30z   M34,52.001v1h1v-1H34z M38,56.001v1h1v-1H38z M34,56.001v1h1v-1H34z M52,52.001v1h1v-1H52z M56,52.001v1h1v-1H56z M54,52.001v1h1  v-1H54z M50,52.001v1h1v-1H50z M48,52.001v1h1v-1H48z M46,52.001v1h1v-1H46z M31,54.001h1v-1h-1V54.001z M33,54.001h1v-1h-1V54.001z   M39,50.001h1v-1h-1V50.001z M41,50.001h1v-1h-1V50.001z M35,54.001h1v-1h-1V54.001z M39,54.001h1v-1h-1V54.001z M37,54.001h1v-1h-1  V54.001z M42,54.001v-1h-1v1H42z M49,58.001h1v-1h-1V58.001z M37,50.001h1v-1h-1V50.001z M45,58.001h1v-1h-1V58.001z M43,58.001h1  v-1h-1V58.001z M47,58.001h1v-1h-1V58.001z M44,54.001v-1h-1v1H44z M35,50.001h1v-1h-1V50.001z M41,58.001h1v-1h-1V58.001z   M51,54.001h1v-1h-1V54.001z M49,54.001h1v-1h-1V54.001z M47,54.001h1v-1h-1V54.001z M45,50.001h1v-1h-1V50.001z M47,50.001h1v-1h-1  V50.001z M53,54.001h1v-1h-1V54.001z M55,54.001h1v-1h-1V54.001z M54,50.001v-1h-1v1H54z M44,50.001v-1h-1v1H44z M57,54.001h1v-1h-1  V54.001z M49,50.001h1v-1h-1V50.001z M33,58.001h1v-1h-1V58.001z M35,58.001h1v-1h-1V58.001z M31,58.001h1v-1h-1V58.001z M37,58.001  h1v-1h-1V58.001z M34,50.001v-1h-1v1H34z M51,50.001h1v-1h-1V50.001z M39,58.001h1v-1h-1V58.001z M45,54.001h1v-1h-1V54.001z   M32,50.001v-1h-1v1H32z M57.906,48.001v1h1v-1H57.906z M62.906,50.001h1v-1h-1V50.001z M61.906,48.001v1h1v-1H61.906z   M55.906,48.001v1h1v-1H55.906z M63.906,49.001h1v-1h-1V49.001z M59.906,48.001v1h1v-1H59.906z M54.906,50.001h1v-1h-1V50.001z   M60.906,50.001h1v-1h-1V50.001z M58.906,50.001h1v-1h-1V50.001z M56.906,50.001h1v-1h-1V50.001z" fill-opacity="0.2" stroke-opacity="0.2"/>
<rect fill="none" height="96" width="96"/>
<path d="M58.516,53.789c-2.48,0-4.5,2.019-4.5,4.5V80H72c2.199,0,4-1.8,4-4V53.789H58.516z" fill-opacity="0.1" stroke-opacity="0.1"/>
<path d="M58.516,54.289c-2.205,0-4,1.795-4,4V80H72c2.199,0,4-1.8,4-4V54.289H58.516z" fill-opacity="0.1" stroke-opacity="0.1"/>
<path d="M58.516,54.789c-1.93,0-3.5,1.57-3.5,3.5V80H72c2.199,0,4-1.8,4-4V54.789H58.516z" fill-opacity="0.3" stroke-opacity="0.3"/>
<linearGradient gradientUnits="userSpaceOnUse" id="SVGID_7_" x1="70.5156" x2="70.5156" y1="47.0894" y2="98.0328">
<stop offset="0" style="stop-color:#009AFF"/>
<stop offset="1" style="stop-color:#051F7D"/>
</linearGradient>
<path d="M85.516,82.288c0,1.656-1.344,3-3,3h-24c-1.658,0-3-1.344-3-3V58.289c0-1.658,1.342-3,3-3h24  c1.656,0,3,1.342,3,3V82.288z" fill="url(#SVGID_7_)"/>
<linearGradient gradientUnits="userSpaceOnUse" id="SVGID_8_" x1="70.5156" x2="70.5156" y1="85.167" y2="82.3301">
<stop offset="0" style="stop-color:#FFFFFF"/>
<stop offset="1" style="stop-color:#FFFFFF;stop-opacity:0"/>
</linearGradient>
<path d="M83.516,82.788c0,0.828-0.672,1.5-1.5,1.5h-23c-0.83,0-1.5-0.672-1.5-1.5l0,0  c0-0.828,0.67-1.5,1.5-1.5h23C82.844,81.288,83.516,81.96,83.516,82.788L83.516,82.788z" fill="url(#SVGID_8_)"/>
<linearGradient gradientTransform="matrix(0 1 -1 0 744.498 -870.5039)" gradientUnits="userSpaceOnUse" id="SVGID_9_" x1="925.9521" x2="928.6182" y1="673.9824" y2="673.9824">
<stop offset="0" style="stop-color:#000000;stop-opacity:0.3"/>
<stop offset="1" style="stop-color:#000000;stop-opacity:0"/>
</linearGradient>
<path d="M85.516,58.289c0-1.658-1.342-3-3-3h-24c-1.656,0-3,1.342-3,3H85.516z" fill="url(#SVGID_9_)"/>
<linearGradient gradientUnits="userSpaceOnUse" id="SVGID_10_" x1="55.6748" x2="58.3408" y1="70.2891" y2="70.2891">
<stop offset="0" style="stop-color:#000000;stop-opacity:0.3"/>
<stop offset="1" style="stop-color:#000000;stop-opacity:0"/>
</linearGradient>
<path d="M58.516,55.289c-1.658,0-3,1.342-3,3v24c0,1.656,1.342,3,3,3V55.289z" fill="url(#SVGID_10_)"/>
<linearGradient gradientUnits="userSpaceOnUse" id="SVGID_11_" x1="82.7178" x2="85.3838" y1="70.2891" y2="70.2891">
<stop offset="0" style="stop-color:#000000;stop-opacity:0"/>
<stop offset="1" style="stop-color:#000000;stop-opacity:0.3"/>
</linearGradient>
<path d="M82.516,55.289v30c1.656,0,3-1.344,3-3v-24C85.516,56.631,84.172,55.289,82.516,55.289z" fill="url(#SVGID_11_)"/>
<linearGradient gradientUnits="userSpaceOnUse" id="SVGID_12_" x1="70.5215" x2="70.5215" y1="43.5469" y2="64.2975">
<stop offset="0" style="stop-color:#FFFFFF"/>
<stop offset="1" style="stop-color:#FFFFFF;stop-opacity:0.1"/>
</linearGradient>
<path d="M84.52,58.287c-0.002-1.104-0.895-1.996-1.998-2l-24,0.002  c-1.104,0.002-1.998,0.895-2,1.998v12.288c4.926-4.264,16.426-7.511,28-8.743L84.52,58.287z" fill="url(#SVGID_12_)" fill-opacity="0.7" stroke-opacity="0.7"/>
</svg>
