<?xml version="1.0" encoding="UTF-8"?>
<!DOCTYPE svg PUBLIC "-//W3C//DTD SVG 1.1 Tiny//EN" "http://www.w3.org/Graphics/SVG/1.1/DTD/svg11-tiny.dtd">
<svg baseProfile="tiny" version="1.1" xmlns="http://www.w3.org/2000/svg" xmlns:xlink="http://www.w3.org/1999/xlink" x="0px" y="0px" width="88px" height="88px" viewBox="0 0 88 88">
<linearGradient id="SVGID_1_" gradientUnits="userSpaceOnUse" x1="-170.0259" y1="145.3008" x2="-153.4591" y2="112.6687" gradientTransform="matrix(1 0 0 -1 214.52 184.1484)">
<stop offset="0" style="stop-color:#A2C2DD"/>
<stop offset="0.1" style="stop-color:#A2C2DD"/>
<stop offset="0.7135" style="stop-color:#6C83BB"/>
<stop offset="0.9888" style="stop-color:#003D6D"/>
<stop offset="1" style="stop-color:#003D6D"/>
</linearGradient>
<path fill="url(#SVGID_1_)" d="M32.636,9.957c-0.191,0.491-2,6.274-2.195,6.841c-0.621-0.097-16.383-2.494-16.383-2.494  C12.486,14.293,10,15.084,10,15.084l1.395,37.626c0,0,22.819,6.295,23.892,6.587l-0.001,0.002c-0.346,0.614-3.05,5.61-3.633,11.059  l0.502,2.62l0.069,0.082c0.166,0.184,4.173,4.634,12.913,6.142l0.155,0.023l0.238-0.108c5.737-3.87,9.838-9.629,10.929-13.318  l0.208-3.294c-0.004-0.198-0.08-4.072-0.515-6.568c0.269-0.255,7.247-6.878,7.681-7.287c1.428,1.146,4.452,2.873,7.444,3.538  l0.134,0.033l0.125-0.061c2.099-1.047,5.649-5.272,6.066-6.739c0.188-0.657,0.408-1.375,0.397-2.88  c-0.019-2.539-1.827-7.152-3.435-8.383c-1.609-1.234-6.195-1.781-6.676-1.909c-2.358,0.738-6.447,3.307-6.447,3.307l3.707-10.958  l2.674,0.07c1.429-2.625,3.747-7.613,3.747-10.658c0-0.76-0.419-2.537-1.604-2.788L36.354,8.774  C36.354,8.774,33.734,8.691,32.636,9.957z"/>
<linearGradient id="SVGID_2_" gradientUnits="userSpaceOnUse" x1="-155.9346" y1="183.7012" x2="-173.3974" y2="150.5219" gradientTransform="matrix(1 0 0 -1 214.52 184.1484)">
<stop offset="0" style="stop-color:#FFFFFF"/>
<stop offset="0.05" style="stop-color:#FFFFFF"/>
<stop offset="1" style="stop-color:#A2C2DD"/>
</linearGradient>
<path fill="url(#SVGID_2_)" d="M66.091,12.649L33.378,9.888L26.835,31.87l28.24,10.572C61.13,41.459,66.091,12.649,66.091,12.649z"/>
<linearGradient id="SVGID_3_" gradientUnits="userSpaceOnUse" x1="-135.6172" y1="183.7754" x2="-156.8649" y2="150.1527" gradientTransform="matrix(1 0 0 -1 214.52 184.1484)">
<stop offset="0" style="stop-color:#FFFFFF"/>
<stop offset="0.7135" style="stop-color:#496DA2"/>
<stop offset="0.9888" style="stop-color:#235487"/>
<stop offset="1" style="stop-color:#235487"/>
</linearGradient>
<path fill="url(#SVGID_3_)" d="M66.103,12.723l-6.076,18.989c-2.35,7.296-2.918,10.696-5.127,10.725  c2.132,0.37,4.858-2.523,6.29-7.642l3.478-10.828l2.847,0.055C73.514,11.927,70.019,10.062,66.103,12.723z"/>
<linearGradient id="SVGID_4_" gradientUnits="userSpaceOnUse" x1="-165.0137" y1="168.8428" x2="-161.2757" y2="178.9888" gradientTransform="matrix(1 0 0 -1 214.52 184.1484)">
<stop offset="0" style="stop-color:#FFFFFF"/>
<stop offset="0.05" style="stop-color:#FFFFFF"/>
<stop offset="1" style="stop-color:#A2C2DD"/>
</linearGradient>
<path fill="url(#SVGID_4_)" d="M66.091,12.713c0.878-0.574,1.581-0.918,2.87-1.087l-32.57-2.302  c-1.395,0.116-2.075,0.17-3.013,0.631L66.091,12.713z"/>
<path fill="#FFFFFF" d="M36.223,11.18c-0.669-0.076-1.381,0.417-1.582,1.1c-0.204,0.678,0.17,1.296,0.836,1.367  c0.665,0.073,1.375-0.418,1.582-1.103C37.267,11.862,36.894,11.251,36.223,11.18z"/>
<path fill="#FFFFFF" d="M34.861,15.66c-0.66-0.075-1.365,0.417-1.566,1.1c-0.202,0.677,0.163,1.298,0.817,1.373  c0.661,0.07,1.359-0.422,1.564-1.104C35.889,16.347,35.523,15.732,34.861,15.66z"/>
<path fill="#FFFFFF" d="M61.09,15.691c-0.548,1.701,1.951,1.909,2.504,0.208C64.17,14.183,61.645,13.974,61.09,15.691z"/>
<path fill="#FFFFFF" d="M59.568,20.367c-0.547,1.691,1.916,1.898,2.475,0.208C62.604,18.871,60.125,18.664,59.568,20.367z"/>
<path fill="#FFFFFF" d="M58.055,25.046c-0.551,1.709,1.871,1.916,2.428,0.208C61.049,23.558,58.604,23.346,58.055,25.046z"/>
<path fill="#FFFFFF" d="M56.533,29.723c-0.556,1.697,1.835,1.912,2.392,0.213C59.493,28.233,57.077,28.018,56.533,29.723z"/>
<path fill="#FFFFFF" d="M55.007,34.4c-0.558,1.718,1.796,1.935,2.359,0.214C57.939,32.895,55.567,32.675,55.007,34.4z"/>
<path fill="#FFFFFF" d="M54.116,38.2l0.104,2.275c0.645,0.067,1.348-0.462,1.587-1.175C56.217,38.064,55.028,37.526,54.116,38.2z"/>
<linearGradient id="SVGID_5_" gradientUnits="userSpaceOnUse" x1="-153.1875" y1="121.2715" x2="-165.5615" y2="160.7283" gradientTransform="matrix(1 0 0 -1 214.52 184.1484)">
<stop offset="0" style="stop-color:#FFFFFF"/>
<stop offset="0.7135" style="stop-color:#496DA2"/>
<stop offset="0.9888" style="stop-color:#235487"/>
<stop offset="1" style="stop-color:#235487"/>
</linearGradient>
<path fill="url(#SVGID_5_)" d="M51.359,20.91c7.503-0.175,0.672,17.134,3.716,21.531l-6.333-1.621  C48.742,40.821,46.048,19.943,51.359,20.91z"/>
<linearGradient id="SVGID_6_" gradientUnits="userSpaceOnUse" x1="-158.5356" y1="119.5889" x2="-170.9101" y2="159.0471" gradientTransform="matrix(1 0 0 -1 214.52 184.1484)">
<stop offset="0" style="stop-color:#A2C2DD"/>
<stop offset="0.1" style="stop-color:#A2C2DD"/>
<stop offset="0.7135" style="stop-color:#6C83BB"/>
<stop offset="0.9888" style="stop-color:#003D6D"/>
<stop offset="1" style="stop-color:#003D6D"/>
</linearGradient>
<polygon fill="url(#SVGID_6_)" points="47.167,62.197 47.317,21.85 50.417,21.055 50.273,59.334 "/>
<linearGradient id="SVGID_7_" gradientUnits="userSpaceOnUse" x1="-170.6763" y1="173.5684" x2="-191.9166" y2="133.2117" gradientTransform="matrix(1 0 0 -1 214.52 184.1484)">
<stop offset="0" style="stop-color:#FFFFFF"/>
<stop offset="0.05" style="stop-color:#FFFFFF"/>
<stop offset="1" style="stop-color:#A2C2DD"/>
</linearGradient>
<polygon fill="url(#SVGID_7_)" points="47.161,62.199 12.032,52.382 10.79,15.46 47.848,22.726 "/>
<linearGradient id="SVGID_8_" gradientUnits="userSpaceOnUse" x1="-184.4028" y1="162.0342" x2="-181.1703" y2="170.8082" gradientTransform="matrix(1 0 0 -1 214.52 184.1484)">
<stop offset="0" style="stop-color:#FFFFFF"/>
<stop offset="0.05" style="stop-color:#FFFFFF"/>
<stop offset="1" style="stop-color:#A2C2DD"/>
</linearGradient>
<path fill="url(#SVGID_8_)" d="M47.848,22.726c0.511-1.077,3.027-2.024,4.502-1.799l-37.932-6.068  c-1.404-0.01-2.861,0.211-3.657,0.638L47.848,22.726z"/>
<path fill="#FFFFFF" d="M12.991,19.035c0.073,1.76,2.727,2.319,2.665,0.559C15.589,17.832,12.914,17.272,12.991,19.035z"/>
<path fill="#FFFFFF" d="M13.191,23.863c0.077,1.75,2.695,2.309,2.628,0.554C15.754,22.668,13.111,22.111,13.191,23.863z"/>
<path fill="#FFFFFF" d="M13.39,28.692c0.081,1.76,2.656,2.317,2.595,0.557C15.922,27.468,13.317,26.912,13.39,28.692z"/>
<path fill="#FFFFFF" d="M13.587,33.517c0.075,1.755,2.623,2.315,2.561,0.558C16.084,32.319,13.512,31.766,13.587,33.517z"/>
<path fill="#FFFFFF" d="M13.787,38.345c0.07,1.764,2.583,2.317,2.521,0.555C16.245,37.138,13.707,36.585,13.787,38.345z"/>
<path fill="#FFFFFF" d="M13.978,43.169c0.072,1.755,2.542,2.313,2.489,0.558C16.401,41.954,13.908,41.399,13.978,43.169z"/>
<path fill="#FFFFFF" d="M42.327,25.685c0.038,1.822,2.757,2.321,2.732,0.496C45.042,24.342,42.296,23.843,42.327,25.685z"/>
<path fill="#FFFFFF" d="M42.416,30.708c0.031,1.826,2.718,2.324,2.698,0.498C45.088,29.385,42.377,28.887,42.416,30.708z"/>
<path fill="#FFFFFF" d="M42.504,35.735c0.033,1.818,2.684,2.313,2.659,0.494C45.138,34.393,42.471,33.898,42.504,35.735z"/>
<path fill="#FFFFFF" d="M42.591,40.758c0.027,1.837,2.643,2.336,2.618,0.497C45.191,39.429,42.55,38.933,42.591,40.758z"/>
<path fill="#FFFFFF" d="M42.671,45.789c0.034,1.826,2.612,2.325,2.586,0.493C45.236,44.447,42.638,43.949,42.671,45.789z"/>
<path fill="#FFFFFF" d="M15.164,47.186c-0.706-0.155-1.249,0.324-1.212,1.061c0.031,0.738,0.628,1.46,1.326,1.608  c0.701,0.147,1.239-0.326,1.211-1.063C16.456,48.053,15.867,47.33,15.164,47.186z"/>
<path fill="#FFFFFF" d="M15.365,51.896c-0.692-0.152-1.228,0.323-1.199,1.06c0,0.008,0.005,0.01,0.005,0.017l2.496,0.669  c0-0.042,0.009-0.089,0.007-0.137C16.642,52.767,16.057,52.044,15.365,51.896z"/>
<linearGradient id="SVGID_9_" gradientUnits="userSpaceOnUse" x1="-181.396" y1="164.2734" x2="-185.986" y2="142.0033" gradientTransform="matrix(1 0 0 -1 214.52 184.1484)">
<stop offset="0" style="stop-color:#FFFFFF"/>
<stop offset="0.7135" style="stop-color:#496DA2"/>
<stop offset="0.9888" style="stop-color:#235487"/>
<stop offset="1" style="stop-color:#235487"/>
</linearGradient>
<polygon fill="url(#SVGID_9_)" points="33.313,39.955 33.488,47.485 24.746,45.137 24.87,37.786 20.232,36.735 29.446,26.307   38.128,41.284 "/>
<linearGradient id="SVGID_10_" gradientUnits="userSpaceOnUse" x1="-127.8794" y1="148.625" x2="-156.5042" y2="127.1121" gradientTransform="matrix(1 0 0 -1 214.52 184.1484)">
<stop offset="0" style="stop-color:#E6EEF4"/>
<stop offset="0.4438" style="stop-color:#4A9900"/>
<stop offset="0.9382" style="stop-color:#0E4E58"/>
<stop offset="1" style="stop-color:#0E4E58"/>
</linearGradient>
<path fill="url(#SVGID_10_)" d="M77.562,41.956L64.58,47.282l-0.837,0.793c1.256,1.091,5.104,3.1,7.551,3.648  c2.085-0.894,5.648-5.229,5.987-6.592C77.666,43.599,77.687,42.73,77.562,41.956z"/>
<linearGradient id="SVGID_11_" gradientUnits="userSpaceOnUse" x1="-135.7012" y1="137.7275" x2="-155.8065" y2="139.3788" gradientTransform="matrix(1 0 0 -1 214.52 184.1484)">
<stop offset="0" style="stop-color:#E6EEF4"/>
<stop offset="0.4438" style="stop-color:#4A9900"/>
<stop offset="0.9382" style="stop-color:#0E4E58"/>
<stop offset="1" style="stop-color:#0E4E58"/>
</linearGradient>
<path fill="url(#SVGID_11_)" d="M69.952,41.145l-5.713,5.891c2.282,1.594,5.02,2.792,6.899,3.301L69.952,41.145z"/>
<linearGradient id="SVGID_12_" gradientUnits="userSpaceOnUse" x1="-133.9507" y1="121.9365" x2="-188.714" y2="106.7635" gradientTransform="matrix(1 0 0 -1 214.52 184.1484)">
<stop offset="0" style="stop-color:#E6EEF4"/>
<stop offset="0.4438" style="stop-color:#4A9900"/>
<stop offset="0.9382" style="stop-color:#0E4E58"/>
<stop offset="1" style="stop-color:#0E4E58"/>
</linearGradient>
<path fill="url(#SVGID_12_)" d="M56.295,62.343l-23.986,7.819l0.476,2.383c0,0,3.972,4.522,12.685,5.987  c5.827-3.898,9.585-9.576,10.602-13.026L56.295,62.343z"/>
<linearGradient id="SVGID_13_" gradientUnits="userSpaceOnUse" x1="-158.8188" y1="100.1309" x2="-189.4024" y2="131.6035" gradientTransform="matrix(1 0 0 -1 214.52 184.1484)">
<stop offset="0" style="stop-color:#DCE8E4"/>
<stop offset="1" style="stop-color:#43910A"/>
</linearGradient>
<path fill="url(#SVGID_13_)" d="M32.281,70.162c0.602-5.639,3.523-10.769,3.523-10.769l8.851,3.012l0.251,13.853  C38.119,75.237,34.475,72.297,32.281,70.162z"/>
<linearGradient id="SVGID_14_" gradientUnits="userSpaceOnUse" x1="-133.1011" y1="146.5527" x2="-192.1344" y2="122.9038" gradientTransform="matrix(1 0 0 -1 214.52 184.1484)">
<stop offset="0" style="stop-color:#DCE8E4"/>
<stop offset="1" style="stop-color:#43910A"/>
</linearGradient>
<path fill="url(#SVGID_14_)" d="M35.803,59.394c1.334,1.266,4.948,3.57,8.708,3.238l29.762-28.163  c-2.595-1.44-6.252-1.757-6.252-1.757C57.893,36.984,44.731,47.555,35.803,59.394z"/>
<linearGradient id="SVGID_15_" gradientUnits="userSpaceOnUse" x1="-126.3179" y1="166.3516" x2="-160.9312" y2="121.7815" gradientTransform="matrix(1 0 0 -1 214.52 184.1484)">
<stop offset="0" style="stop-color:#DCE8E4"/>
<stop offset="1" style="stop-color:#43910A"/>
</linearGradient>
<path fill="url(#SVGID_15_)" d="M44.904,76.258c-0.771-2.862-1.09-10.492-0.382-13.718c8.153-11.922,19.884-22.582,29.698-28.125  c0,0,2.77,2.889,3.354,7.526c-0.687,2.931-4.085,6.649-6.442,8.385c-0.313-0.706-1.382-8.679-1.382-8.679  c-2.707,3.545-6.983,7.402-13.99,14.038c0.464,2.462,0.533,6.632,0.533,6.632C54.047,67.732,50.056,73.044,44.904,76.258z"/>
<rect fill="none" width="88" height="88"/>
</svg>
